<svg width="600" height="500" viewBox="0 0 2854 1791" fill="none" xmlns="http://www.w3.org/2000/svg">
<path d="M474.847 1251.32C431.112 1251.32 396.034 1215.79 396.034 1172.51C396.034 1129.23 431.568 1093.7 474.847 1093.7H921.301V1251.78H474.847V1251.32Z" fill="#CECECE"/>
<path d="M947.269 1278.66H474.847C416.079 1278.66 368.7 1230.82 368.7 1172.51C368.7 1113.74 416.534 1066.36 474.847 1066.36H947.269V1278.66Z" fill="white"/>
<path d="M445.691 1147.91H921.301" stroke="#1F3969" stroke-width="4" stroke-miterlimit="10" stroke-linecap="round" stroke-linejoin="round"/>
<path d="M445.691 1196.2H921.301" stroke="#1F3969" stroke-width="4" stroke-miterlimit="10" stroke-linecap="round" stroke-linejoin="round"/>
<path d="M474.847 1251.32C431.112 1251.32 396.034 1215.79 396.034 1172.51C396.034 1129.23 431.568 1093.7 474.847 1093.7H921.301V1251.78H474.847V1251.32Z" stroke="#1F3969" stroke-width="4" stroke-miterlimit="10" stroke-linecap="round" stroke-linejoin="round"/>
<path d="M474.847 1251.32C431.112 1251.32 396.034 1215.79 396.034 1172.51C396.034 1129.23 431.568 1093.7 474.847 1093.7H929.046L947.269 1066.36H474.847C416.079 1066.36 368.7 1114.2 368.7 1172.51C368.7 1231.28 416.534 1278.66 474.847 1278.66H947.269L929.046 1251.32H474.847Z" fill="#FF3E3E"/>
<path d="M474.847 1251.32C431.112 1251.32 396.034 1215.79 396.034 1172.51C396.034 1129.23 431.568 1093.7 474.847 1093.7H929.046L947.269 1066.36H474.847C416.079 1066.36 368.7 1114.2 368.7 1172.51C368.7 1231.28 416.534 1278.66 474.847 1278.66H947.269L929.046 1251.32H474.847Z" stroke="#1F3969" stroke-width="4" stroke-miterlimit="10" stroke-linecap="round" stroke-linejoin="round"/>
<path opacity="0.28" d="M845.677 1065.91H761.853V1278.66H845.677V1065.91Z" fill="#1F3969" stroke="#1F3969" stroke-width="4" stroke-miterlimit="10" stroke-linecap="round" stroke-linejoin="round"/>
<path d="M898.523 1454.05H33.4033C16.5474 1454.05 2.4248 1440.38 2.4248 1423.07V1309.18C2.4248 1292.32 16.0918 1278.2 33.4033 1278.2H898.523C915.379 1278.2 929.502 1291.87 929.502 1309.18V1423.07C929.502 1440.38 915.835 1454.05 898.523 1454.05Z" fill="#50B56F"/>
<path d="M898.523 1454.05H33.4033C16.5474 1454.05 2.4248 1440.38 2.4248 1423.07V1309.18C2.4248 1292.32 16.0918 1278.2 33.4033 1278.2H898.523C915.379 1278.2 929.502 1291.87 929.502 1309.18V1423.07C929.502 1440.38 915.835 1454.05 898.523 1454.05Z" stroke="#1F3969" stroke-width="4" stroke-miterlimit="10" stroke-linecap="round" stroke-linejoin="round"/>
<path opacity="0.28" d="M898.523 1278.66H761.853V1346.99C761.853 1389.82 796.476 1424.89 839.755 1424.89H929.502C929.502 1424.44 929.502 1423.98 929.502 1423.53V1309.64C929.502 1292.32 915.835 1278.66 898.523 1278.66Z" fill="#1F3969" stroke="#1F3969" stroke-width="4" stroke-miterlimit="10" stroke-linecap="round" stroke-linejoin="round"/>
<path d="M1142.25 1489.58H140.006C145.928 1504.16 149.117 1522.39 149.117 1541.52C149.117 1560.65 145.928 1578.42 140.006 1593.45H1141.8C1135.87 1578.88 1132.68 1560.65 1132.68 1541.52C1133.14 1521.93 1136.33 1504.16 1142.25 1489.58Z" fill="#CECECE"/>
<path d="M1169.58 1461.8H113.127V1489.13H1169.58V1461.8Z" fill="#5F5AFF"/>
<path d="M1169.58 1461.8H113.127V1489.13H1169.58V1461.8Z" stroke="#1F3969" stroke-width="4" stroke-miterlimit="10" stroke-linecap="round" stroke-linejoin="round"/>
<path d="M1169.58 1593H113.127V1620.33H1169.58V1593Z" fill="#F6F9FD"/>
<path d="M1169.58 1593H113.127V1620.33H1169.58V1593Z" fill="#5F5AFF"/>
<path d="M1169.58 1593H113.127V1620.33H1169.58V1593Z" stroke="#1F3969" stroke-width="4" stroke-miterlimit="10" stroke-linecap="round" stroke-linejoin="round"/>
<path d="M1694.4 1523.3L1680.73 1369.77H1455.68L1442.01 1523.3C1438.82 1558.83 1417.41 1593 1383.7 1620.33V1620.79H1752.71V1620.33C1719 1593 1697.59 1558.83 1694.4 1523.3Z" fill="#BFCFE2"/>
<path opacity="0.28" d="M1455.68 1369.77L1447.48 1461.8H1688.93L1680.73 1369.77H1455.68Z" fill="#1F3969" stroke="#1F3969" stroke-width="4" stroke-miterlimit="10" stroke-linecap="round" stroke-linejoin="round"/>
<path d="M1694.4 1523.3L1680.73 1369.77H1455.68L1442.01 1523.3C1438.82 1558.83 1417.41 1593 1383.7 1620.33V1620.79H1752.71V1620.33C1719 1593 1697.59 1558.83 1694.4 1523.3Z" stroke="#1F3969" stroke-width="2" stroke-miterlimit="10" stroke-linecap="round" stroke-linejoin="round"/>
<path d="M2288 1392.55H848.411C818.344 1392.55 793.743 1367.95 793.743 1337.88V399.415C793.743 369.348 818.344 344.747 848.411 344.747H2288C2318.07 344.747 2342.67 369.348 2342.67 399.415V1337.88C2342.67 1368.4 2318.07 1392.55 2288 1392.55Z" fill="white"/>
<path d="M2288 1392.55H848.411C818.344 1392.55 793.743 1367.95 793.743 1337.88V399.415C793.743 369.348 818.344 344.747 848.411 344.747H2288C2318.07 344.747 2342.67 369.348 2342.67 399.415V1337.88C2342.67 1368.4 2318.07 1392.55 2288 1392.55Z" fill="#BFCFE2"/>
<path d="M2288 1392.55H848.411C818.344 1392.55 793.743 1367.95 793.743 1337.88V399.415C793.743 369.348 818.344 344.747 848.411 344.747H2288C2318.07 344.747 2342.67 369.348 2342.67 399.415V1337.88C2342.67 1368.4 2318.07 1392.55 2288 1392.55Z" stroke="#1F3969" stroke-width="4" stroke-miterlimit="10" stroke-linecap="round" stroke-linejoin="round"/>
<path d="M2265.48 1217.74V422.321H871.444V1217.74H2265.48Z" fill="#F6F9FD"/>
<path opacity="0.28" d="M921.301 344.747V976.162C921.301 996.207 937.702 1012.61 957.747 1012.61H1819.22C1839.27 1012.61 1855.67 996.207 1855.67 976.162V344.747H921.301Z" fill="#1F3969" stroke="#1F3969" stroke-width="4" stroke-miterlimit="10" stroke-linecap="round" stroke-linejoin="round"/>
<path d="M2265.48 1217.74V422.321H871.444V1217.74H2265.48Z" stroke="#1F3969" stroke-width="4" stroke-miterlimit="10" stroke-linecap="round" stroke-linejoin="round"/>
<path d="M1507.16 1304.62H1629.71" stroke="#1F3969" stroke-width="4" stroke-miterlimit="10" stroke-linecap="round" stroke-linejoin="round"/>
<path d="M1860.22 962.495H998.748C978.703 962.495 962.302 946.094 962.302 926.049V250.901C962.302 230.856 978.703 214.455 998.748 214.455H1860.22C1880.27 214.455 1896.67 230.856 1896.67 250.901V926.505C1896.67 946.55 1880.27 962.495 1860.22 962.495Z" fill="#2D425E"/>
<path d="M1896.67 302.835H962.302V250.445C962.302 230.4 978.703 214 998.748 214H1860.22C1880.27 214 1896.67 230.4 1896.67 250.445V302.835Z" stroke="#1F3969" stroke-width="4" stroke-miterlimit="10" stroke-linecap="round" stroke-linejoin="round"/>
<path d="M1896.67 320.147H962.302V250.445C962.302 230.4 978.703 214 998.748 214H1860.22C1880.27 214 1896.67 230.4 1896.67 250.445V320.147Z" fill="#D0DDF0"/>
<path d="M1896.67 320.147H962.302V250.445C962.302 230.4 978.703 214 998.748 214H1860.22C1880.27 214 1896.67 230.4 1896.67 250.445V320.147Z" stroke="#1F3969" stroke-width="4" stroke-miterlimit="10" stroke-linecap="round" stroke-linejoin="round"/>
<path d="M1896.67 320.147H962.302V250.445C962.302 230.4 978.703 214 998.748 214H1860.22C1880.27 214 1896.67 230.4 1896.67 250.445V320.147Z" stroke="#1F3969" stroke-width="4" stroke-miterlimit="10" stroke-linecap="round" stroke-linejoin="round"/>
<path d="M1860.22 962.495H998.748C978.703 962.495 962.302 946.094 962.302 926.049V250.901C962.302 230.856 978.703 214.455 998.748 214.455H1860.22C1880.27 214.455 1896.67 230.856 1896.67 250.901V926.505C1896.67 946.55 1880.27 962.495 1860.22 962.495Z" stroke="#1F3969" stroke-width="4" stroke-miterlimit="10" stroke-linecap="round" stroke-linejoin="round"/>
<path opacity="0.28" d="M2309.87 1123.77H1781.41C1761.36 1123.77 1744.96 1107.37 1744.96 1087.32V527.43C1744.96 507.385 1761.36 490.984 1781.41 490.984H2309.87C2329.91 490.984 2346.31 507.385 2346.31 527.43V1087.32C2346.31 1107.82 2329.91 1123.77 2309.87 1123.77Z" fill="#1F3969" stroke="#1F3969" stroke-width="4" stroke-miterlimit="10" stroke-linecap="round" stroke-linejoin="round"/>
<path d="M2346.31 1091.88H1817.86C1797.81 1091.88 1781.41 1075.48 1781.41 1055.43V495.54C1781.41 475.495 1797.81 459.095 1817.86 459.095H2346.31C2366.36 459.095 2382.76 475.495 2382.76 495.54V1055.43C2382.76 1075.93 2366.36 1091.88 2346.31 1091.88Z" fill="#2AA1FF"/>
<path d="M2346.31 1091.88H1817.86C1797.81 1091.88 1781.41 1075.48 1781.41 1055.43V495.54C1781.41 475.495 1797.81 459.095 1817.86 459.095H2346.31C2366.36 459.095 2382.76 475.495 2382.76 495.54V1055.43C2382.76 1075.93 2366.36 1091.88 2346.31 1091.88Z" stroke="#1F3969" stroke-width="4" stroke-miterlimit="10" stroke-linecap="round" stroke-linejoin="round"/>
<path opacity="0.34" d="M2267.5 632.666H1895.76C1882.55 632.666 1872.07 622.187 1872.07 608.976V573.442C1872.07 560.231 1882.55 549.752 1895.76 549.752H2267.5C2280.71 549.752 2291.19 560.231 2291.19 573.442V608.976C2291.19 622.187 2280.71 632.666 2267.5 632.666Z" stroke="white" stroke-width="2" stroke-miterlimit="10" stroke-linecap="round" stroke-linejoin="round"/>
<g opacity="0.34">
<path opacity="0.34" d="M2104.41 766.146H1896.67C1883.46 766.146 1872.98 755.668 1872.98 742.457V706.922C1872.98 693.711 1883.46 683.233 1896.67 683.233H2104.41C2117.62 683.233 2128.1 693.711 2128.1 706.922V742.457C2127.64 755.668 2117.16 766.146 2104.41 766.146Z" stroke="white" stroke-width="2" stroke-miterlimit="10" stroke-linecap="round" stroke-linejoin="round"/>
<path opacity="0.34" d="M2267.95 766.146H2187.32C2174.11 766.146 2163.63 755.668 2163.63 742.457V706.922C2163.63 693.711 2174.11 683.233 2187.32 683.233H2267.95C2281.17 683.233 2291.64 693.711 2291.64 706.922V742.457C2291.64 755.668 2281.17 766.146 2267.95 766.146Z" stroke="white" stroke-width="2" stroke-miterlimit="10" stroke-linecap="round" stroke-linejoin="round"/>
</g>
<path d="M1872.52 904.638H2291.19" stroke="white" stroke-width="2" stroke-miterlimit="10" stroke-linecap="round" stroke-linejoin="round"/>
<path d="M1872.52 953.84H2291.19" stroke="white" stroke-width="2" stroke-miterlimit="10" stroke-linecap="round" stroke-linejoin="round"/>
<path d="M1872.52 1003.04H2127.64" stroke="white" stroke-width="2" stroke-miterlimit="10" stroke-linecap="round" stroke-linejoin="round"/>
<path d="M1053.87 285.524C1063.93 285.524 1072.09 277.364 1072.09 267.301C1072.09 257.238 1063.93 249.078 1053.87 249.078C1043.81 249.078 1035.65 257.238 1035.65 267.301C1035.65 277.364 1043.81 285.524 1053.87 285.524Z" fill="#1F3969"/>
<path d="M1117.19 285.524C1127.26 285.524 1135.42 277.364 1135.42 267.301C1135.42 257.238 1127.26 249.078 1117.19 249.078C1107.13 249.078 1098.97 257.238 1098.97 267.301C1098.97 277.364 1107.13 285.524 1117.19 285.524Z" fill="#1F3969"/>
<path d="M1180.52 285.524C1190.58 285.524 1198.74 277.364 1198.74 267.301C1198.74 257.238 1190.58 249.078 1180.52 249.078C1170.45 249.078 1162.3 257.238 1162.3 267.301C1162.3 277.364 1170.45 285.524 1180.52 285.524Z" fill="#1F3969"/>
<path d="M1498.96 404.427H1558.18" stroke="white" stroke-width="4" stroke-miterlimit="10" stroke-linecap="round" stroke-linejoin="round"/>
<path d="M1198.74 404.427H1455.22" stroke="#7BFFA0" stroke-width="4" stroke-miterlimit="10" stroke-linecap="round" stroke-linejoin="round"/>
<path d="M1072.09 404.427H1162.3" stroke="#9169FF" stroke-width="4" stroke-miterlimit="10" stroke-linecap="round" stroke-linejoin="round"/>
<path d="M1189.63 853.159H1385.52" stroke="#9169FF" stroke-width="4" stroke-miterlimit="10" stroke-linecap="round" stroke-linejoin="round"/>
<path d="M1072.09 853.159H1135.42" stroke="#7BFFA0" stroke-width="4" stroke-miterlimit="10" stroke-linecap="round" stroke-linejoin="round"/>
<path d="M1455.22 460.461H1492.13" stroke="white" stroke-width="4" stroke-miterlimit="10" stroke-linecap="round" stroke-linejoin="round"/>
<path d="M1287.58 460.461H1411.49" stroke="#9169FF" stroke-width="4" stroke-miterlimit="10" stroke-linecap="round" stroke-linejoin="round"/>
<path d="M1117.19 460.461H1243.39" stroke="#FFC47D" stroke-width="4" stroke-miterlimit="10" stroke-linecap="round" stroke-linejoin="round"/>
<path d="M1312.63 516.496H1421.51" stroke="white" stroke-width="4" stroke-miterlimit="10" stroke-linecap="round" stroke-linejoin="round"/>
<path d="M1175.96 516.496H1278.46" stroke="#FF5757" stroke-width="4" stroke-miterlimit="10" stroke-linecap="round" stroke-linejoin="round"/>
<path d="M1327.21 572.53H1349.53" stroke="white" stroke-width="4" stroke-miterlimit="10" stroke-linecap="round" stroke-linejoin="round"/>
<path d="M1237.01 572.53H1287.58" stroke="#9169FF" stroke-width="4" stroke-miterlimit="10" stroke-linecap="round" stroke-linejoin="round"/>
<path d="M1117.19 572.53H1198.74" stroke="#7BFFA0" stroke-width="4" stroke-miterlimit="10" stroke-linecap="round" stroke-linejoin="round"/>
<path d="M1292.13 629.02H1437.46" stroke="#FFC47D" stroke-width="4" stroke-miterlimit="10" stroke-linecap="round" stroke-linejoin="round"/>
<path d="M1117.19 629.02H1247.49" stroke="#FF5757" stroke-width="4" stroke-miterlimit="10" stroke-linecap="round" stroke-linejoin="round"/>
<path d="M1460.24 685.055H1539.05" stroke="#9169FF" stroke-width="4" stroke-miterlimit="10" stroke-linecap="round" stroke-linejoin="round"/>
<path d="M1292.13 685.055H1418.32" stroke="#FF5757" stroke-width="4" stroke-miterlimit="10" stroke-linecap="round" stroke-linejoin="round"/>
<path d="M1175.96 685.055H1247.49" stroke="#7BFFA0" stroke-width="4" stroke-miterlimit="10" stroke-linecap="round" stroke-linejoin="round"/>
<path d="M1349.53 741.09H1418.32" stroke="white" stroke-width="4" stroke-miterlimit="10" stroke-linecap="round" stroke-linejoin="round"/>
<path d="M1175.96 741.09H1302.15" stroke="#9169FF" stroke-width="4" stroke-miterlimit="10" stroke-linecap="round" stroke-linejoin="round"/>
<path d="M1528.57 797.124H1607.38" stroke="white" stroke-width="4" stroke-miterlimit="10" stroke-linecap="round" stroke-linejoin="round"/>
<path d="M1287.58 797.124H1485.75" stroke="#FFC47D" stroke-width="4" stroke-miterlimit="10" stroke-linecap="round" stroke-linejoin="round"/>
<path d="M1117.19 797.124H1243.39" stroke="white" stroke-width="4" stroke-miterlimit="10" stroke-linecap="round" stroke-linejoin="round"/>
<path d="M151.395 1521.02H1133.14" stroke="#1F3969" stroke-width="4" stroke-miterlimit="10" stroke-linecap="round" stroke-linejoin="round"/>
<path d="M151.395 1557.46H1133.14" stroke="#1F3969" stroke-width="4" stroke-miterlimit="10" stroke-linecap="round" stroke-linejoin="round"/>
<path d="M1142.25 1489.58H140.006C145.928 1504.16 149.117 1522.39 149.117 1541.52C149.117 1560.65 145.928 1578.42 140.006 1593.45H1141.8C1135.87 1578.88 1132.68 1560.65 1132.68 1541.52C1133.14 1521.93 1136.33 1504.16 1142.25 1489.58Z" stroke="#1F3969" stroke-width="4" stroke-miterlimit="10" stroke-linecap="round" stroke-linejoin="round"/>
<path d="M2490.49 1118.17L2446.15 1123.37L2484.72 1451.86L2529.06 1446.66L2490.49 1118.17Z" fill="#FFA364"/>
<path d="M2490.55 1118.52L2446.21 1123.72L2450.14 1157.2L2494.48 1152L2490.55 1118.52Z" fill="#2AA1FF"/>
<path d="M2490.55 1118.52L2446.21 1123.72L2450.14 1157.2L2494.48 1152L2490.55 1118.52Z" stroke="#1F3969" stroke-width="4" stroke-miterlimit="10" stroke-linecap="round" stroke-linejoin="round"/>
<path d="M2490.49 1118.17L2446.15 1123.37L2484.72 1451.86L2529.06 1446.66L2490.49 1118.17Z" stroke="#1F3969" stroke-width="4" stroke-miterlimit="10" stroke-linecap="round" stroke-linejoin="round"/>
<path d="M2612.08 1185.45L2567.7 1180.63L2531.95 1509.42L2576.33 1514.24L2612.08 1185.45Z" fill="#FF5252"/>
<path d="M2612.08 1185.45L2567.7 1180.63L2531.95 1509.42L2576.33 1514.24L2612.08 1185.45Z" stroke="#1F3969" stroke-width="4" stroke-miterlimit="10" stroke-linecap="round" stroke-linejoin="round"/>
<path d="M2612.41 1185.53L2568.03 1180.71L2564.39 1214.22L2608.77 1219.05L2612.41 1185.53Z" fill="#2D425E"/>
<path d="M2612.41 1185.53L2568.03 1180.71L2564.39 1214.22L2608.77 1219.05L2612.41 1185.53Z" stroke="#1F3969" stroke-width="4" stroke-miterlimit="10" stroke-linecap="round" stroke-linejoin="round"/>
<path d="M2639.7 1621.7H2460.66L2431.5 1347.45H2668.85L2639.7 1621.7Z" fill="#6567C3"/>
<path d="M2431.5 1347.45L2431.96 1352.46H2612.82L2584.12 1621.7H2639.7L2668.85 1347.45H2431.5Z" fill="#6567C3"/>
<path d="M2639.7 1621.7H2460.66L2431.5 1347.45H2668.85L2639.7 1621.7Z" stroke="#1F3969" stroke-width="4" stroke-miterlimit="10" stroke-linecap="round" stroke-linejoin="round"/>
<path d="M8.31958 1623.94H2847.68C2847.68 1668.01 2830.17 1710.28 2799.01 1741.44C2767.85 1772.6 2725.58 1790.11 2681.51 1790.11H174.549C130.477 1790.11 88.2085 1772.6 57.0453 1741.44C25.8822 1710.28 8.3745 1668.01 8.3745 1623.94H8.31958Z" fill="#F7B14B"/>
<path d="M2843.28 1660.64C2841.58 1668.13 2839.32 1675.48 2836.53 1682.62H19.5298C16.7382 1675.48 14.4797 1668.13 12.7707 1660.64H2843.28Z" fill="#D17E1C"/>
<path d="M2681.51 1790.87H174.549C128.801 1790.81 84.9498 1772.61 52.6051 1740.27C20.255 1707.92 2.06045 1664.07 2 1618.32C2.14837 1616.74 2.87923 1615.27 4.0552 1614.2C5.22568 1613.13 6.75882 1612.54 8.34693 1612.54C9.93504 1612.54 11.4682 1613.13 12.6387 1614.2C13.8146 1615.27 14.5455 1616.74 14.6939 1618.32C14.7378 1660.7 31.5915 1701.34 61.5623 1731.31C91.533 1761.28 132.164 1778.13 174.549 1778.17H2681.51C2723.89 1778.13 2764.52 1761.28 2794.49 1731.31C2824.46 1701.34 2841.32 1660.7 2841.36 1618.32C2841.36 1616.64 2842.03 1615.04 2843.21 1613.85C2844.4 1612.66 2846 1612 2847.68 1612C2849.36 1612 2850.97 1612.66 2852.15 1613.85C2853.34 1615.04 2854 1616.64 2854 1618.32C2853.96 1664.06 2835.77 1707.91 2803.43 1740.26C2771.09 1772.61 2727.25 1790.81 2681.51 1790.87Z" fill="white"/>
<path d="M208.182 1328.18H216.636V1378.09C216.636 1382.55 215.818 1386.33 214.182 1389.44C212.545 1392.56 210.239 1394.92 207.261 1396.53C204.284 1398.15 200.773 1398.95 196.727 1398.95C192.909 1398.95 189.511 1398.26 186.534 1396.88C183.557 1395.47 181.216 1393.47 179.511 1390.88C177.807 1388.28 176.955 1385.2 176.955 1381.64H185.273C185.273 1383.61 185.761 1385.34 186.739 1386.82C187.739 1388.27 189.102 1389.41 190.83 1390.23C192.557 1391.05 194.523 1391.45 196.727 1391.45C199.159 1391.45 201.227 1390.94 202.932 1389.92C204.636 1388.9 205.932 1387.4 206.818 1385.42C207.727 1383.42 208.182 1380.98 208.182 1378.09V1328.18ZM247.898 1399.23C244.58 1399.23 241.568 1398.6 238.864 1397.35C236.159 1396.08 234.011 1394.25 232.42 1391.86C230.83 1389.45 230.034 1386.55 230.034 1383.14C230.034 1380.14 230.625 1377.7 231.807 1375.84C232.989 1373.95 234.568 1372.48 236.545 1371.41C238.523 1370.34 240.705 1369.55 243.091 1369.02C245.5 1368.48 247.92 1368.05 250.352 1367.73C253.534 1367.32 256.114 1367.01 258.091 1366.81C260.091 1366.58 261.545 1366.2 262.455 1365.68C263.386 1365.16 263.852 1364.25 263.852 1362.95V1362.68C263.852 1359.32 262.932 1356.7 261.091 1354.84C259.273 1352.98 256.511 1352.05 252.807 1352.05C248.966 1352.05 245.955 1352.89 243.773 1354.57C241.591 1356.25 240.057 1358.05 239.17 1359.95L231.534 1357.23C232.898 1354.05 234.716 1351.57 236.989 1349.8C239.284 1348 241.784 1346.75 244.489 1346.05C247.216 1345.32 249.898 1344.95 252.534 1344.95C254.216 1344.95 256.148 1345.16 258.33 1345.57C260.534 1345.95 262.659 1346.76 264.705 1347.99C266.773 1349.22 268.489 1351.07 269.852 1353.55C271.216 1356.02 271.898 1359.34 271.898 1363.5V1398H263.852V1390.91H263.443C262.898 1392.05 261.989 1393.26 260.716 1394.56C259.443 1395.85 257.75 1396.95 255.636 1397.86C253.523 1398.77 250.943 1399.23 247.898 1399.23ZM249.125 1392C252.307 1392 254.989 1391.38 257.17 1390.12C259.375 1388.88 261.034 1387.26 262.148 1385.28C263.284 1383.31 263.852 1381.23 263.852 1379.05V1371.68C263.511 1372.09 262.761 1372.47 261.602 1372.81C260.466 1373.12 259.148 1373.41 257.648 1373.66C256.17 1373.89 254.727 1374.09 253.318 1374.27C251.932 1374.43 250.807 1374.57 249.943 1374.68C247.852 1374.95 245.898 1375.4 244.08 1376.01C242.284 1376.6 240.83 1377.5 239.716 1378.7C238.625 1379.89 238.08 1381.5 238.08 1383.55C238.08 1386.34 239.114 1388.45 241.182 1389.89C243.273 1391.3 245.92 1392 249.125 1392ZM327.526 1345.64L308.162 1398H299.98L280.616 1345.64H289.344L303.798 1387.36H304.344L318.798 1345.64H327.526ZM351.96 1399.23C348.642 1399.23 345.631 1398.6 342.926 1397.35C340.222 1396.08 338.074 1394.25 336.483 1391.86C334.892 1389.45 334.097 1386.55 334.097 1383.14C334.097 1380.14 334.688 1377.7 335.869 1375.84C337.051 1373.95 338.631 1372.48 340.608 1371.41C342.585 1370.34 344.767 1369.55 347.153 1369.02C349.563 1368.48 351.983 1368.05 354.415 1367.73C357.597 1367.32 360.176 1367.01 362.153 1366.81C364.153 1366.58 365.608 1366.2 366.517 1365.68C367.449 1365.16 367.915 1364.25 367.915 1362.95V1362.68C367.915 1359.32 366.994 1356.7 365.153 1354.84C363.335 1352.98 360.574 1352.05 356.869 1352.05C353.028 1352.05 350.017 1352.89 347.835 1354.57C345.653 1356.25 344.119 1358.05 343.233 1359.95L335.597 1357.23C336.96 1354.05 338.778 1351.57 341.051 1349.8C343.347 1348 345.847 1346.75 348.551 1346.05C351.278 1345.32 353.96 1344.95 356.597 1344.95C358.278 1344.95 360.21 1345.16 362.392 1345.57C364.597 1345.95 366.722 1346.76 368.767 1347.99C370.835 1349.22 372.551 1351.07 373.915 1353.55C375.278 1356.02 375.96 1359.34 375.96 1363.5V1398H367.915V1390.91H367.506C366.96 1392.05 366.051 1393.26 364.778 1394.56C363.506 1395.85 361.813 1396.95 359.699 1397.86C357.585 1398.77 355.006 1399.23 351.96 1399.23ZM353.188 1392C356.369 1392 359.051 1391.38 361.233 1390.12C363.438 1388.88 365.097 1387.26 366.21 1385.28C367.347 1383.31 367.915 1381.23 367.915 1379.05V1371.68C367.574 1372.09 366.824 1372.47 365.665 1372.81C364.528 1373.12 363.21 1373.41 361.71 1373.66C360.233 1373.89 358.79 1374.09 357.381 1374.27C355.994 1374.43 354.869 1374.57 354.006 1374.68C351.915 1374.95 349.96 1375.4 348.142 1376.01C346.347 1376.6 344.892 1377.5 343.778 1378.7C342.688 1379.89 342.142 1381.5 342.142 1383.55C342.142 1386.34 343.176 1388.45 345.244 1389.89C347.335 1391.3 349.983 1392 353.188 1392ZM429.918 1345.64C429.509 1342.18 427.849 1339.5 424.94 1337.59C422.031 1335.68 418.463 1334.73 414.236 1334.73C411.145 1334.73 408.44 1335.23 406.122 1336.23C403.827 1337.23 402.031 1338.6 400.736 1340.35C399.463 1342.1 398.827 1344.09 398.827 1346.32C398.827 1348.18 399.27 1349.78 400.156 1351.12C401.065 1352.44 402.224 1353.55 403.634 1354.43C405.043 1355.3 406.52 1356.01 408.065 1356.58C409.611 1357.12 411.031 1357.57 412.327 1357.91L419.418 1359.82C421.236 1360.3 423.259 1360.95 425.486 1361.8C427.736 1362.64 429.884 1363.78 431.929 1365.24C433.997 1366.67 435.702 1368.51 437.043 1370.76C438.384 1373.01 439.054 1375.77 439.054 1379.05C439.054 1382.82 438.065 1386.23 436.088 1389.27C434.134 1392.32 431.27 1394.74 427.497 1396.53C423.747 1398.33 419.19 1399.23 413.827 1399.23C408.827 1399.23 404.497 1398.42 400.838 1396.81C397.202 1395.19 394.338 1392.94 392.247 1390.06C390.179 1387.17 389.009 1383.82 388.736 1380H397.463C397.69 1382.64 398.577 1384.82 400.122 1386.55C401.69 1388.25 403.668 1389.52 406.054 1390.36C408.463 1391.18 411.054 1391.59 413.827 1391.59C417.054 1391.59 419.952 1391.07 422.52 1390.02C425.088 1388.95 427.122 1387.48 428.622 1385.59C430.122 1383.68 430.872 1381.45 430.872 1378.91C430.872 1376.59 430.224 1374.7 428.929 1373.25C427.634 1371.8 425.929 1370.61 423.815 1369.7C421.702 1368.8 419.418 1368 416.963 1367.32L408.372 1364.86C402.918 1363.3 398.599 1361.06 395.418 1358.15C392.236 1355.24 390.645 1351.43 390.645 1346.73C390.645 1342.82 391.702 1339.41 393.815 1336.5C395.952 1333.57 398.815 1331.3 402.406 1329.68C406.02 1328.05 410.054 1327.23 414.509 1327.23C419.009 1327.23 423.009 1328.03 426.509 1329.65C430.009 1331.24 432.781 1333.42 434.827 1336.19C436.895 1338.97 437.986 1342.11 438.099 1345.64H429.918ZM473.136 1399.09C468.227 1399.09 464 1397.93 460.455 1395.61C456.909 1393.3 454.182 1390.1 452.273 1386.03C450.364 1381.97 449.409 1377.32 449.409 1372.09C449.409 1366.77 450.386 1362.08 452.341 1358.01C454.318 1353.92 457.068 1350.73 460.591 1348.43C464.136 1346.11 468.273 1344.95 473 1344.95C476.682 1344.95 480 1345.64 482.955 1347C485.909 1348.36 488.33 1350.27 490.216 1352.73C492.102 1355.18 493.273 1358.05 493.727 1361.32H485.682C485.068 1358.93 483.705 1356.82 481.591 1354.98C479.5 1353.11 476.682 1352.18 473.136 1352.18C470 1352.18 467.25 1353 464.886 1354.64C462.545 1356.25 460.716 1358.53 459.398 1361.49C458.102 1364.42 457.455 1367.86 457.455 1371.82C457.455 1375.86 458.091 1379.39 459.364 1382.39C460.659 1385.39 462.477 1387.72 464.818 1389.38C467.182 1391.03 469.955 1391.86 473.136 1391.86C475.227 1391.86 477.125 1391.5 478.83 1390.77C480.534 1390.05 481.977 1389 483.159 1387.64C484.341 1386.27 485.182 1384.64 485.682 1382.73H493.727C493.273 1385.82 492.148 1388.6 490.352 1391.08C488.58 1393.53 486.227 1395.49 483.295 1396.94C480.386 1398.38 477 1399.09 473.136 1399.09ZM505.489 1398V1345.64H513.261V1353.55H513.807C514.761 1350.95 516.489 1348.85 518.989 1347.24C521.489 1345.62 524.307 1344.82 527.443 1344.82C528.034 1344.82 528.773 1344.83 529.659 1344.85C530.545 1344.87 531.216 1344.91 531.67 1344.95V1353.14C531.398 1353.07 530.773 1352.97 529.795 1352.83C528.841 1352.67 527.83 1352.59 526.761 1352.59C524.216 1352.59 521.943 1353.12 519.943 1354.19C517.966 1355.24 516.398 1356.69 515.239 1358.56C514.102 1360.4 513.534 1362.5 513.534 1364.86V1398H505.489ZM541.207 1398V1345.64H549.253V1398H541.207ZM545.298 1336.91C543.73 1336.91 542.378 1336.38 541.241 1335.31C540.128 1334.24 539.571 1332.95 539.571 1331.45C539.571 1329.95 540.128 1328.67 541.241 1327.6C542.378 1326.53 543.73 1326 545.298 1326C546.866 1326 548.207 1326.53 549.321 1327.6C550.457 1328.67 551.026 1329.95 551.026 1331.45C551.026 1332.95 550.457 1334.24 549.321 1335.31C548.207 1336.38 546.866 1336.91 545.298 1336.91ZM563.989 1417.64V1345.64H571.761V1353.95H572.716C573.307 1353.05 574.125 1351.89 575.17 1350.48C576.239 1349.05 577.761 1347.77 579.739 1346.66C581.739 1345.52 584.443 1344.95 587.852 1344.95C592.261 1344.95 596.148 1346.06 599.511 1348.26C602.875 1350.47 605.5 1353.59 607.386 1357.64C609.273 1361.68 610.216 1366.45 610.216 1371.95C610.216 1377.5 609.273 1382.31 607.386 1386.38C605.5 1390.42 602.886 1393.56 599.545 1395.78C596.205 1397.99 592.352 1399.09 587.989 1399.09C584.625 1399.09 581.932 1398.53 579.909 1397.42C577.886 1396.28 576.33 1395 575.239 1393.57C574.148 1392.11 573.307 1390.91 572.716 1389.95H572.034V1417.64H563.989ZM571.898 1371.82C571.898 1375.77 572.477 1379.26 573.636 1382.28C574.795 1385.28 576.489 1387.64 578.716 1389.34C580.943 1391.02 583.67 1391.86 586.898 1391.86C590.261 1391.86 593.068 1390.98 595.318 1389.2C597.591 1387.41 599.295 1385 600.432 1381.98C601.591 1378.93 602.17 1375.55 602.17 1371.82C602.17 1368.14 601.602 1364.82 600.466 1361.86C599.352 1358.89 597.659 1356.53 595.386 1354.81C593.136 1353.06 590.307 1352.18 586.898 1352.18C583.625 1352.18 580.875 1353.01 578.648 1354.67C576.42 1356.31 574.739 1358.6 573.602 1361.56C572.466 1364.49 571.898 1367.91 571.898 1371.82ZM645.261 1345.64V1352.45H618.125V1345.64H645.261ZM626.034 1333.09H634.08V1383C634.08 1385.27 634.409 1386.98 635.068 1388.11C635.75 1389.23 636.614 1389.98 637.659 1390.36C638.727 1390.73 639.852 1390.91 641.034 1390.91C641.92 1390.91 642.648 1390.86 643.216 1390.77C643.784 1390.66 644.239 1390.57 644.58 1390.5L646.216 1397.73C645.67 1397.93 644.909 1398.14 643.932 1398.34C642.955 1398.57 641.716 1398.68 640.216 1398.68C637.943 1398.68 635.716 1398.19 633.534 1397.22C631.375 1396.24 629.58 1394.75 628.148 1392.75C626.739 1390.75 626.034 1388.23 626.034 1385.18V1333.09Z" fill="white"/>
<path d="M1621.18 1181H1089.79C1072.18 1181 1058 1166.82 1058 1149.21V785.789C1058 768.176 1072.18 754 1089.79 754H1621.61C1639.22 754 1653.39 768.176 1653.39 785.789V1149.21C1652.96 1166.82 1638.79 1181 1621.18 1181Z" fill="#444E59"/>
<path d="M1652.96 823.162H1058V785.789C1058 768.176 1072.18 754 1089.79 754H1621.61C1639.22 754 1653.39 768.176 1653.39 785.789V823.162H1652.96Z" fill="#BCBCBC"/>
<path d="M1621.18 1181H1089.79C1072.18 1181 1058 1166.82 1058 1149.21V785.789C1058 768.176 1072.18 754 1089.79 754H1621.61C1639.22 754 1653.39 768.176 1653.39 785.789V1149.21C1652.96 1166.82 1638.79 1181 1621.18 1181Z" stroke="#444E59" stroke-width="4" stroke-miterlimit="10" stroke-linecap="round" stroke-linejoin="round"/>
<path d="M1621.18 1181H1089.79C1072.18 1181 1058 1166.82 1058 1149.21V785.789C1058 768.176 1072.18 754 1089.79 754H1621.61C1639.22 754 1653.39 768.176 1653.39 785.789V1149.21C1652.96 1166.82 1638.79 1181 1621.18 1181Z" stroke="#444E59" stroke-width="4" stroke-miterlimit="10" stroke-linecap="round" stroke-linejoin="round"/>
<path d="M1652.96 823.162H1058V785.789C1058 768.176 1072.18 754 1089.79 754H1621.61C1639.22 754 1653.39 768.176 1653.39 785.789V823.162H1652.96Z" stroke="#444E59" stroke-width="4" stroke-miterlimit="10" stroke-linecap="round" stroke-linejoin="round"/>
<path d="M1140.05 1126.44H1207.06" stroke="white" stroke-width="4" stroke-miterlimit="10" stroke-linecap="round" stroke-linejoin="round"/>
<path d="M1092.8 1126.44H1097.52" stroke="white" stroke-width="4" stroke-miterlimit="10" stroke-linecap="round" stroke-linejoin="round"/>
<path d="M1140.05 1089.5H1309.73" stroke="white" stroke-width="4" stroke-miterlimit="10" stroke-linecap="round" stroke-linejoin="round"/>
<path d="M1092.8 1089.5H1097.52" stroke="white" stroke-width="4" stroke-miterlimit="10" stroke-linecap="round" stroke-linejoin="round"/>
<path d="M1390.49 1052.13H1436.89" stroke="#64BDFF" stroke-width="4" stroke-miterlimit="10" stroke-linecap="round" stroke-linejoin="round"/>
<path d="M1264.2 1052.13H1350.11" stroke="white" stroke-width="4" stroke-miterlimit="10" stroke-linecap="round" stroke-linejoin="round"/>
<path d="M1140.05 1052.13H1225.11" stroke="#FF5F5F" stroke-width="4" stroke-miterlimit="10" stroke-linecap="round" stroke-linejoin="round"/>
<path d="M1092.8 1052.13H1097.52" stroke="white" stroke-width="4" stroke-miterlimit="10" stroke-linecap="round" stroke-linejoin="round"/>
<path d="M1283.1 1015.18H1490.15" stroke="white" stroke-width="4" stroke-miterlimit="10" stroke-linecap="round" stroke-linejoin="round"/>
<path d="M1140.05 1015.18H1248.3" stroke="#64BDFF" stroke-width="4" stroke-miterlimit="10" stroke-linecap="round" stroke-linejoin="round"/>
<path d="M1092.8 1015.18H1097.52" stroke="white" stroke-width="4" stroke-miterlimit="10" stroke-linecap="round" stroke-linejoin="round"/>
<path d="M1283.1 978.24H1360.42" stroke="#FF5F5F" stroke-width="4" stroke-miterlimit="10" stroke-linecap="round" stroke-linejoin="round"/>
<path d="M1140.05 978.24H1248.3" stroke="#FFBE78" stroke-width="4" stroke-miterlimit="10" stroke-linecap="round" stroke-linejoin="round"/>
<path d="M1092.8 978.239H1097.52" stroke="white" stroke-width="4" stroke-miterlimit="10" stroke-linecap="round" stroke-linejoin="round"/>
<path d="M1298.13 941.292H1319.18" stroke="#64BDFF" stroke-width="4" stroke-miterlimit="10" stroke-linecap="round" stroke-linejoin="round"/>
<path d="M1216.51 941.292H1264.2" stroke="#FF5F5F" stroke-width="4" stroke-miterlimit="10" stroke-linecap="round" stroke-linejoin="round"/>
<path d="M1140.05 941.292H1179.57" stroke="#C383F2" stroke-width="4" stroke-miterlimit="10" stroke-linecap="round" stroke-linejoin="round"/>
<path d="M1092.8 941.291H1097.52" stroke="white" stroke-width="4" stroke-miterlimit="10" stroke-linecap="round" stroke-linejoin="round"/>
<path d="M1452.78 903.923H1490.15" stroke="#64BDFF" stroke-width="4" stroke-miterlimit="10" stroke-linecap="round" stroke-linejoin="round"/>
<path d="M1259.04 903.923H1405.53" stroke="#FF5F5F" stroke-width="4" stroke-miterlimit="10" stroke-linecap="round" stroke-linejoin="round"/>
<path d="M1140.05 903.923H1227.25" stroke="#FFBE78" stroke-width="4" stroke-miterlimit="10" stroke-linecap="round" stroke-linejoin="round"/>
<path d="M1092.8 903.923H1097.52" stroke="white" stroke-width="4" stroke-miterlimit="10" stroke-linecap="round" stroke-linejoin="round"/>
<path d="M1360.42 866.979H1436.89" stroke="#FFBE78" stroke-width="4" stroke-miterlimit="10" stroke-linecap="round" stroke-linejoin="round"/>
<path d="M1264.2 866.979H1323.48" stroke="#6DBF7B" stroke-width="4" stroke-miterlimit="10" stroke-linecap="round" stroke-linejoin="round"/>
<path d="M1199.76 866.979H1233.27" stroke="#FFBE78" stroke-width="4" stroke-miterlimit="10" stroke-linecap="round" stroke-linejoin="round"/>
<path d="M1140.05 866.979H1167.54" stroke="#6DBF7B" stroke-width="4" stroke-miterlimit="10" stroke-linecap="round" stroke-linejoin="round"/>
<path d="M1092.8 866.979H1097.52" stroke="white" stroke-width="4" stroke-miterlimit="10" stroke-linecap="round" stroke-linejoin="round"/>
<path d="M1116.85 799.535C1122.78 799.535 1127.59 794.728 1127.59 788.796C1127.59 782.863 1122.78 778.056 1116.85 778.056C1110.92 778.056 1106.11 782.863 1106.11 788.796C1106.11 794.728 1110.92 799.535 1116.85 799.535Z" fill="#E7534E"/>
<path d="M1155.51 799.535C1161.45 799.535 1166.25 794.728 1166.25 788.796C1166.25 782.863 1161.45 778.056 1155.51 778.056C1149.58 778.056 1144.77 782.863 1144.77 788.796C1144.77 794.728 1149.58 799.535 1155.51 799.535Z" fill="#444E59"/>
<path d="M1194.61 799.535C1200.54 799.535 1205.34 794.728 1205.34 788.796C1205.34 782.863 1200.54 778.056 1194.61 778.056C1188.67 778.056 1183.87 782.863 1183.87 788.796C1183.87 794.728 1188.67 799.535 1194.61 799.535Z" fill="#444E59"/>
<path d="M2670.56 427H2066.44C2029.36 427 2000 396.918 2000 360.666V68.334C2000 31.3104 2030.13 2 2066.44 2H2670.56C2707.64 2 2737 32.0817 2737 68.334V359.895C2737 396.918 2707.64 427 2670.56 427Z" fill="#2FA9ED"/>
<path d="M2670.56 427H2066.44C2029.36 427 2000 396.918 2000 360.666V68.334C2000 31.3104 2030.13 2 2066.44 2H2670.56C2707.64 2 2737 32.0817 2737 68.334V359.895C2737 396.918 2707.64 427 2670.56 427Z" stroke="#444E59" stroke-width="3" stroke-miterlimit="10" stroke-linecap="round" stroke-linejoin="round"/>
<path d="M2220.29 334.745H2081.93C2061.84 334.745 2046.38 318.513 2046.38 299.189V137.641C2046.38 117.544 2062.61 102.085 2081.93 102.085H2220.29C2240.39 102.085 2255.85 118.317 2255.85 137.641V299.189C2255.85 318.513 2240.39 334.745 2220.29 334.745Z" stroke="white" stroke-width="3" stroke-miterlimit="10" stroke-linecap="round" stroke-linejoin="round"/>
<path d="M2151.5 228.85C2171.99 228.85 2188.6 212.239 2188.6 191.748C2188.6 171.257 2171.99 154.646 2151.5 154.646C2131.01 154.646 2114.4 171.257 2114.4 191.748C2114.4 212.239 2131.01 228.85 2151.5 228.85Z" stroke="white" stroke-width="3" stroke-miterlimit="10" stroke-linecap="round" stroke-linejoin="round"/>
<path d="M2081.16 330.88C2081.16 292.232 2112.85 260.541 2151.5 260.541C2190.15 260.541 2221.84 292.232 2221.84 330.88" stroke="white" stroke-width="3" stroke-miterlimit="10" stroke-linecap="round" stroke-linejoin="round"/>
<path d="M2331.32 254H2322.45L2348.09 184.182H2356.82L2382.45 254H2373.59L2352.73 195.227H2352.18L2331.32 254ZM2334.59 226.727H2370.32V234.227H2334.59V226.727ZM2393.33 254V184.182H2401.38V209.955H2402.06C2402.65 209.045 2403.47 207.886 2404.51 206.477C2405.58 205.045 2407.1 203.773 2409.08 202.659C2411.08 201.523 2413.78 200.955 2417.19 200.955C2421.6 200.955 2425.49 202.057 2428.85 204.261C2432.22 206.466 2434.84 209.591 2436.73 213.636C2438.61 217.682 2439.56 222.455 2439.56 227.955C2439.56 233.5 2438.61 238.307 2436.73 242.375C2434.84 246.42 2432.23 249.557 2428.89 251.784C2425.55 253.989 2421.69 255.091 2417.33 255.091C2413.97 255.091 2411.27 254.534 2409.25 253.42C2407.23 252.284 2405.67 251 2404.58 249.568C2403.49 248.114 2402.65 246.909 2402.06 245.955H2401.1V254H2393.33ZM2401.24 227.818C2401.24 231.773 2401.82 235.261 2402.98 238.284C2404.14 241.284 2405.83 243.636 2408.06 245.341C2410.28 247.023 2413.01 247.864 2416.24 247.864C2419.6 247.864 2422.41 246.977 2424.66 245.205C2426.93 243.409 2428.64 241 2429.77 237.977C2430.93 234.932 2431.51 231.545 2431.51 227.818C2431.51 224.136 2430.94 220.818 2429.81 217.864C2428.69 214.886 2427 212.534 2424.73 210.807C2422.48 209.057 2419.65 208.182 2416.24 208.182C2412.97 208.182 2410.22 209.011 2407.99 210.67C2405.76 212.307 2404.08 214.602 2402.94 217.557C2401.81 220.489 2401.24 223.909 2401.24 227.818ZM2473.14 255.091C2468.41 255.091 2464.26 253.966 2460.69 251.716C2457.15 249.466 2454.38 246.318 2452.38 242.273C2450.4 238.227 2449.41 233.5 2449.41 228.091C2449.41 222.636 2450.4 217.875 2452.38 213.807C2454.38 209.739 2457.15 206.58 2460.69 204.33C2464.26 202.08 2468.41 200.955 2473.14 200.955C2477.86 200.955 2482 202.08 2485.55 204.33C2489.11 206.58 2491.89 209.739 2493.86 213.807C2495.86 217.875 2496.86 222.636 2496.86 228.091C2496.86 233.5 2495.86 238.227 2493.86 242.273C2491.89 246.318 2489.11 249.466 2485.55 251.716C2482 253.966 2477.86 255.091 2473.14 255.091ZM2473.14 247.864C2476.73 247.864 2479.68 246.943 2482 245.102C2484.32 243.261 2486.03 240.841 2487.15 237.841C2488.26 234.841 2488.82 231.591 2488.82 228.091C2488.82 224.591 2488.26 221.33 2487.15 218.307C2486.03 215.284 2484.32 212.841 2482 210.977C2479.68 209.114 2476.73 208.182 2473.14 208.182C2469.55 208.182 2466.59 209.114 2464.27 210.977C2461.95 212.841 2460.24 215.284 2459.12 218.307C2458.01 221.33 2457.45 224.591 2457.45 228.091C2457.45 231.591 2458.01 234.841 2459.12 237.841C2460.24 240.841 2461.95 243.261 2464.27 245.102C2466.59 246.943 2469.55 247.864 2473.14 247.864ZM2542.14 232.591V201.636H2550.19V254H2542.14V245.136H2541.6C2540.37 247.795 2538.46 250.057 2535.87 251.92C2533.28 253.761 2530.01 254.682 2526.05 254.682C2522.78 254.682 2519.87 253.966 2517.33 252.534C2514.78 251.08 2512.78 248.898 2511.33 245.989C2509.87 243.057 2509.14 239.364 2509.14 234.909V201.636H2517.19V234.364C2517.19 238.182 2518.26 241.227 2520.39 243.5C2522.55 245.773 2525.3 246.909 2528.64 246.909C2530.64 246.909 2532.68 246.398 2534.75 245.375C2536.84 244.352 2538.59 242.784 2540 240.67C2541.43 238.557 2542.14 235.864 2542.14 232.591ZM2587.7 201.636V208.455H2560.56V201.636H2587.7ZM2568.47 189.091H2576.52V239C2576.52 241.273 2576.85 242.977 2577.51 244.114C2578.19 245.227 2579.05 245.977 2580.1 246.364C2581.16 246.727 2582.29 246.909 2583.47 246.909C2584.36 246.909 2585.09 246.864 2585.65 246.773C2586.22 246.659 2586.68 246.568 2587.02 246.5L2588.65 253.727C2588.11 253.932 2587.35 254.136 2586.37 254.341C2585.39 254.568 2584.15 254.682 2582.65 254.682C2580.38 254.682 2578.15 254.193 2575.97 253.216C2573.81 252.239 2572.02 250.75 2570.59 248.75C2569.18 246.75 2568.47 244.227 2568.47 241.182V189.091Z" fill="white"/>
</svg>
