<svg id="eUnDS1XNQ7H1" xmlns="http://www.w3.org/2000/svg" xmlns:xlink="http://www.w3.org/1999/xlink" viewBox="0 0 264 280" shape-rendering="geometricPrecision" text-rendering="geometricPrecision"><defs><circle id="eUnDS1XNQ7H2" r="120"/><path id="eUnDS1XNQ7H3" d="M12,160c0,66.27417,53.72583,120,120,120s120-53.72583,120-120h12v-160L0,0v160h12Z"/><path id="eUnDS1XNQ7H4" d="M124,144.610951L124,163h4v0c39.764502,0,72,32.235498,72,72v9h-200v-9c0-39.764502,32.235498-72,72-72v0h4v-18.389049c-17.237365-8.188579-29.627775-24.92394-31.694861-44.729712C38.480311,99.057787,34,94.05211,34,88v-14c0-5.945993,4.324573-10.881927,10-11.834083L44,56v0C44,25.072054,69.072054,0,100,0v0v0c30.927946,0,56,25.072054,56,56v6.165917c5.675427.952156,10,5.88809,10,11.834083v14c0,6.05211-4.48031,11.057787-10.305139,11.881239C153.627775,119.687011,141.237365,136.422372,124,144.610951Z"/><path id="eUnDS1XNQ7H5" d="M133.960472,0.294916C170.936473,3.324998,200,34.294286,200,72.051724L200,81L0,81v-8.948276C0,33.952563,29.591985,2.764981,67.045406,0.219526C67.01526,0.593115,67,0.969227,67,1.347625c0,11.863093,14.998461,21.480029,33.5,21.480029s33.5-9.616936,33.5-21.480029c0-.352956-.013277-.703924-.039528-1.052709Z"/><path id="eUnDS1XNQ7H6" d="M35.117844,15.128077C36.175712,24.619803,44.225987,32,54,32c9.804206,0,17.874008-7.425864,18.891759-16.959945C72.973669,14.272746,72.116743,13,71.042767,13c-14.894013,0-26.304846,0-33.955943,0-1.080207,0-2.074818,1.178444-1.96898,2.128077Z"/><rect id="eUnDS1XNQ7H7" width="264" height="280" rx="0" ry="0"/><path id="eUnDS1XNQ7H8" d="M101.428403,98.168569c-2.513566,2.294052-5.191183,3.32574-8.575459,2.604294-.582366-.12403-2.956605-4.538292-8.85311-4.538292s-8.270409,4.414262-8.853109,4.538292c-3.384276.721446-6.061893-.310242-8.575459-2.604294-4.725089-4.312965-8.654644-10.260383-6.293436-16.749388c1.230554-3.382238,3.231918-7.095447,6.872796-8.17327c3.88779-1.150369,9.346267-.002006,13.264128-.78764c1.269312-.254746,2.6559-.707405,3.58508-1.458271.929181.750866,2.316103,1.203525,3.584747,1.458271c3.918195.785634,9.376672-.362729,13.264462.78764c3.640878,1.077823,5.642241,4.791032,6.87313,8.17327c2.361208,6.489005-1.568347,12.436423-6.29377,16.749388M140.081033,26c-3.41034,8.400253-2.093259,18.858035-2.724367,27.675872-.512628,7.167322-2.019546,17.909881-8.383808,22.538659-3.254497,2.367083-9.178498,6.345368-13.430988,5.235663-2.927331-.763809-3.239688-9.160098-7.086586-12.303214-4.363564-3.564665-9.812299-5.130937-15.306136-4.889108-2.37061.104396-7.165011.079619-9.149215,1.902586-1.984203-1.822967-6.778268-1.79819-9.148878-1.902586-5.494174-.241829-10.942908,1.324443-15.306473,4.889108-3.846898,3.143116-4.158918,11.539405-7.086249,12.303214-4.25249,1.109705-10.176491-2.86858-13.431325-5.235663-6.364598-4.628778-7.870843-15.371337-8.384144-22.538659-.630771-8.817837.686309-19.275619-2.72403-27.675872-1.659057,0-.5648,16.128869-.5648,16.128869v20.356252c.03164,15.288084,9.581061,38.170324,30.753978,46.907883C63.286127,111.52982,75.015311,115,83.999933,115s20.713807-3.139812,25.891922-5.276629c21.172916-8.737558,30.722338-31.950166,30.754314-47.23825v-20.356252c0,0,1.09392-16.128869-.565136-16.128869"/><path id="eUnDS1XNQ7H9" d="M94.251927,52.022115c.123008-.0544-.182256-.0753-.915792-.0626.891529-.0018,1.196793.019.915792.0626M86.116978,36.301592c-.002136-.0196.016777.1511,0,0M193.765056,70.765667c-.26411-3.316933-.732106-6.613781-1.51838-9.854585-.624443-2.575733-1.477669-5.033548-2.48667-7.491039-.609303-1.484666-2.032468-3.523937-2.199682-5.12555-.164858-1.57764,1.066197-3.325355,1.328961-5.162156.255026-1.787561.211624-3.667124-.155102-5.438487-.833039-4.022821-3.593912-7.763805-7.857016-8.812434-.951805-.234217-2.96375.054424-3.636305-.499856-.771133-.635592-1.308101-2.800879-2.006225-3.669391-1.990413-2.475956-5.094797-4.070442-8.36875-3.514543-2.41097.40915-1.026496.90771-2.833882-.511194-1.004964-.788821-1.75591-1.99327-2.731939-2.847204-1.46724-1.282845-3.150478-2.381039-4.89192-3.28227-4.556821-2.358038-9.753897-4.072062-14.843984-4.907531-9.285228-1.524189-19.195236-.195342-28.195494,2.219387-4.478429,1.201534-8.987137,2.72637-13.146615,4.742964-1.783499.864625-2.813023,1.581852-4.672558,1.808294-2.928759.35667-5.409037.338852-8.183368,1.58088-8.5363,3.821972-12.381201,12.68883-9.059473,21.174074.668181,1.706573,1.572883,3.205169,2.820088,4.58358c1.520734,1.680657,2.070823,1.349903.76104,3.282594-1.958787,2.889965-3.610062,5.97171-4.954499,9.171696-3.528979,8.401665-4.119441,17.864268-3.889649,26.824424.080411,3.136816.214989,6.312182.709564,9.418871.213643,1.34472.27353,3.873156,1.282195,4.870924.511733.506012,1.240811.788173,1.968207.586675c1.70948-.473616,1.12171-1.73508,1.16141-2.906163.199849-5.883595-.06998-11.088512,1.329297-16.901162c1.033561-4.294616,2.756163-8.194984,4.98848-12.035097c2.838593-4.884207,5.90294-9.17364,9.806719-13.355845.917824-.983515,1.118346-1.40044,2.349064-1.471709.931954-.053776,2.295232.584407,3.201281.805342c1.997814.486898,3.999329.968289,6.03348,1.296127c3.73993.602873,7.443188.643366,11.216763.525124c7.426365-.232272,14.884693-.753185,22.084967-2.623353c4.781903-1.241704,9.021455-3.47081,13.601826-5.104818.081757-.029155,1.229709-.847131,1.430904-.813764.280932.046325,1.976955,1.825787,2.26327,2.049961c2.225588,1.745447,4.666838,2.478224,7.070406,3.829746c2.963414,1.666404.093532-.718199,1.727985,1.35865.476407.604816.72033,1.726334,1.102532,2.41149c1.215915,2.182781,2.907564,4.101218,4.930948,5.623463c1.955086,1.470736,4.893266,2.181161,5.890155,4.095386.768778,1.476892,1.027842,3.484091,1.648247,5.06076c1.627388,4.135232,3.776603,7.991543,5.925818,11.886404c1.73135,3.138759,3.625202,5.880679,3.817649,9.467463.066953,1.248506-1.121037,8.737602,1.772733,6.459903.428968-.337556,1.353857-4.155965,1.543949-4.803867.771133-2.632748,1.045337-5.381147,1.394567-8.086136.694424-5.379528.922534-10.497951.469006-15.916028"/></defs><g transform="translate(-824-1100)"><g transform="translate(825 1100)"><g transform="translate(12 40)"><use width="240" height="240" xlink:href="#eUnDS1XNQ7H2" transform="translate(120 120)" fill="#e6e6e6" fill-rule="evenodd"/><g mask="url(#eUnDS1XNQ7H17)"><g><rect width="240" height="240" rx="0" ry="0" fill="#65c9ff" fill-rule="evenodd"/></g><mask id="eUnDS1XNQ7H17" mask-type="luminance" x="-150%" y="-150%" height="400%" width="400%"><use width="240" height="240" xlink:href="#eUnDS1XNQ7H2" transform="translate(120 120)" fill="#fff" fill-rule="evenodd"/></mask></g></g><g mask="url(#eUnDS1XNQ7H87)"><g id="eUnDS1XNQ7H20" transform="translate(0 140)"><g transform="translate(32 36)"><use width="200" height="244" xlink:href="#eUnDS1XNQ7H4" fill="#d0c6ac" fill-rule="evenodd"/><g mask="url(#eUnDS1XNQ7H28)"><g><g><rect width="264" height="280" rx="0" ry="0" fill="#edb98a" fill-rule="evenodd"/></g></g><path d="M156,79v23c0,30.927946-25.072054,56-56,56s-56-25.072054-56-56v-23v15c0,30.927946,25.072054,56,56,56s56-25.072054,56-56v-15Z" fill-opacity="0.1" fill-rule="evenodd"/><mask id="eUnDS1XNQ7H28" mask-type="luminance" x="-150%" y="-150%" height="400%" width="400%"><use width="200" height="244" xlink:href="#eUnDS1XNQ7H4" fill="#fff" fill-rule="evenodd"/></mask></g></g><g transform="translate(0 170)"><g transform="translate(32 29)"><use width="200" height="80.780472" xlink:href="#eUnDS1XNQ7H5" fill="#e6e6e6" fill-rule="evenodd"/><g mask="url(#eUnDS1XNQ7H40)"><g><g transform="translate(-32-29)"><rect width="264" height="110" rx="0" ry="0" fill="#262e33" fill-rule="evenodd"/></g></g><g opacity="0.6"><g transform="translate(60-25)"><ellipse rx="39.635105" ry="26.913828" transform="translate(40.5 27.847626)" fill-opacity="0.16" fill-rule="evenodd"/></g></g><mask id="eUnDS1XNQ7H40" mask-type="luminance" x="-150%" y="-150%" height="400%" width="400%"><use width="200" height="80.780472" xlink:href="#eUnDS1XNQ7H5" fill="#fff" fill-rule="evenodd"/></mask></g></g><g transform="translate(32 28)"><path d="M68.784807,1.122228C30.512317,2.804097,0,34.364644,0,73.051724v0L0,82h69.361677C65.960741,69.919994,64,55.70873,64,40.5c0-14.327026,1.739989-27.768888,4.784807-39.377772ZM131.638323,82L200,82v-8.948276c0-38.34496-29.975046-69.688872-67.771281-71.877882C135.265163,12.770946,137,26.194202,137,40.5c0,15.20873-1.960741,29.419994-5.361677,41.5Z" fill="#3a4c5a" fill-rule="evenodd"/><path d="M149,58l9.555853-7.16689v0c1.443044-1.082282,3.431926-1.064837,4.855763.042591L170,56l-21,2Z" fill="#e6e6e6" fill-rule="evenodd"/><path d="M69,0c-4,19.333333-2.333333,46.666667,5,82h-16L44,46l6-9-6-6L63,1c2.027659-.630761,4.027659-.964095,6-1Z" fill="#2f4351" fill-rule="evenodd"/><path d="M151,0c-4,19.333333-2.333333,46.666667,5,82h-16L126,46l6-9-6-6L145,1c2.027659-.630761,4.027659-.964095,6-1Z" transform="matrix(-1 0 0 1 282 0)" fill="#2f4351" fill-rule="evenodd"/></g></g><g transform="translate(76 82)"><g transform="translate(2 52)"><use width="37.78709" height="19" xlink:href="#eUnDS1XNQ7H6" fill-opacity="0.7" fill-rule="evenodd"/><g mask="url(#eUnDS1XNQ7H56)"><rect width="31" height="16" rx="5" ry="5" transform="translate(39 2)" fill="#fff" fill-rule="evenodd"/><g><g transform="translate(38 24)"><circle r="11" transform="translate(11 11)" fill="#ff4f6d" fill-rule="evenodd"/><circle r="11" transform="translate(21 11)" fill="#ff4f6d" fill-rule="evenodd"/></g></g><mask id="eUnDS1XNQ7H56" mask-type="luminance" x="-150%" y="-150%" height="400%" width="400%"><use width="37.78709" height="19" xlink:href="#eUnDS1XNQ7H6" fill="#fff" fill-rule="evenodd"/></mask></g></g><g transform="translate(28 40)"><path d="M16,8c0,4.418278,5.372583,8,12,8v0c6.627417,0,12-3.581722,12-8" fill-opacity="0.16" fill-rule="evenodd"/></g><g transform="translate(0 8)"><circle r="6" transform="translate(30 22)" fill-opacity="0.6" fill-rule="evenodd"/><circle r="6" transform="translate(82 22)" fill-opacity="0.6" fill-rule="evenodd"/></g><g><path d="M26.039093,6.210124c-5.761538.773338-14.746162,5.795124-13.994833,11.607687.024688.190243.31247.249536.436648.090683c2.486496-3.188159,21.711889-7.871946,28.713359-6.893779.640785.089732,1.063799-.571681.626783-.984508-3.744484-3.535353-10.620671-4.517959-15.781957-3.820083" transform="matrix(.996195 0.087156-.087156 0.996195 1.148612-2.307541)" fill-opacity="0.6" fill-rule="evenodd"/><path d="M85.039093,6.210124c-5.761538.773338-14.746162,5.795124-13.994833,11.607687.024688.190243.31247.249536.436648.090683c2.486496-3.188159,21.711889-7.871946,28.713359-6.893779.640785.089732,1.063799-.571681.626783-.984508-3.744484-3.535353-10.620671-4.517959-15.781957-3.820083" transform="matrix(-.996195 0.087156 0.087156 0.996195 170.626875-7.44973)" fill-opacity="0.6" fill-rule="evenodd"/></g></g><g><g mask="url(#eUnDS1XNQ7H85)"><g><g transform="translate(-1 0)"><g transform="translate(49 72)"><use width="113.999992" height="89" xlink:href="#eUnDS1XNQ7H8" fill="#331b0c" fill-rule="evenodd"/><g mask="url(#eUnDS1XNQ7H76)"><g><g transform="translate(-32 0)"><rect width="264" height="244" rx="0" ry="0" fill="#4a312c" fill-rule="evenodd"/></g></g><mask id="eUnDS1XNQ7H76" mask-type="luminance" x="-150%" y="-150%" height="400%" width="400%"><use width="113.999992" height="89" xlink:href="#eUnDS1XNQ7H8" fill="#fff" fill-rule="evenodd"/></mask></g></g><use width="121" height="91" xlink:href="#eUnDS1XNQ7H9" fill="#28354b" fill-rule="evenodd"/><g mask="url(#eUnDS1XNQ7H83)"><g><g><rect width="264" height="280" rx="0" ry="0" fill="#4a312c" fill-rule="evenodd"/></g></g><mask id="eUnDS1XNQ7H83" mask-type="luminance" x="-150%" y="-150%" height="400%" width="400%"><use width="121" height="91" xlink:href="#eUnDS1XNQ7H9" fill="#fff" fill-rule="evenodd"/></mask></g></g></g><mask id="eUnDS1XNQ7H85" mask-type="luminance" x="-150%" y="-150%" height="400%" width="400%"><use width="264" height="280" xlink:href="#eUnDS1XNQ7H7" fill="#fff" fill-rule="evenodd"/></mask></g></g></g><mask id="eUnDS1XNQ7H87" mask-type="luminance" x="-150%" y="-150%" height="400%" width="400%"><use width="264" height="280" xlink:href="#eUnDS1XNQ7H3" fill="#fff" fill-rule="evenodd"/></mask></g></g></g>
<script><![CDATA[
!function(t,n){"object"==typeof exports&&"undefined"!=typeof module?module.exports=n():"function"==typeof define&&define.amd?define(n):((t="undefined"!=typeof globalThis?globalThis:t||self).__SVGATOR_PLAYER__=t.__SVGATOR_PLAYER__||{},t.__SVGATOR_PLAYER__["5c7f360c"]=n())}(this,(function(){"use strict";function t(t,n){var e=Object.keys(t);if(Object.getOwnPropertySymbols){var r=Object.getOwnPropertySymbols(t);n&&(r=r.filter((function(n){return Object.getOwnPropertyDescriptor(t,n).enumerable}))),e.push.apply(e,r)}return e}function n(n){for(var e=1;e<arguments.length;e++){var r=null!=arguments[e]?arguments[e]:{};e%2?t(Object(r),!0).forEach((function(t){o(n,t,r[t])})):Object.getOwnPropertyDescriptors?Object.defineProperties(n,Object.getOwnPropertyDescriptors(r)):t(Object(r)).forEach((function(t){Object.defineProperty(n,t,Object.getOwnPropertyDescriptor(r,t))}))}return n}function e(t){return(e="function"==typeof Symbol&&"symbol"==typeof Symbol.iterator?function(t){return typeof t}:function(t){return t&&"function"==typeof Symbol&&t.constructor===Symbol&&t!==Symbol.prototype?"symbol":typeof t})(t)}function r(t,n){if(!(t instanceof n))throw new TypeError("Cannot call a class as a function")}function i(t,n){for(var e=0;e<n.length;e++){var r=n[e];r.enumerable=r.enumerable||!1,r.configurable=!0,"value"in r&&(r.writable=!0),Object.defineProperty(t,r.key,r)}}function u(t,n,e){return n&&i(t.prototype,n),e&&i(t,e),t}function o(t,n,e){return n in t?Object.defineProperty(t,n,{value:e,enumerable:!0,configurable:!0,writable:!0}):t[n]=e,t}function a(t){return(a=Object.setPrototypeOf?Object.getPrototypeOf:function(t){return t.__proto__||Object.getPrototypeOf(t)})(t)}function l(t,n){return(l=Object.setPrototypeOf||function(t,n){return t.__proto__=n,t})(t,n)}function s(){if("undefined"==typeof Reflect||!Reflect.construct)return!1;if(Reflect.construct.sham)return!1;if("function"==typeof Proxy)return!0;try{return Boolean.prototype.valueOf.call(Reflect.construct(Boolean,[],(function(){}))),!0}catch(t){return!1}}function f(t,n,e){return(f=s()?Reflect.construct:function(t,n,e){var r=[null];r.push.apply(r,n);var i=new(Function.bind.apply(t,r));return e&&l(i,e.prototype),i}).apply(null,arguments)}function c(t,n){if(n&&("object"==typeof n||"function"==typeof n))return n;if(void 0!==n)throw new TypeError("Derived constructors may only return object or undefined");return function(t){if(void 0===t)throw new ReferenceError("this hasn't been initialised - super() hasn't been called");return t}(t)}function h(t,n,e){return(h="undefined"!=typeof Reflect&&Reflect.get?Reflect.get:function(t,n,e){var r=function(t,n){for(;!Object.prototype.hasOwnProperty.call(t,n)&&null!==(t=a(t)););return t}(t,n);if(r){var i=Object.getOwnPropertyDescriptor(r,n);return i.get?i.get.call(e):i.value}})(t,n,e||t)}function v(t){return function(t){if(Array.isArray(t))return y(t)}(t)||function(t){if("undefined"!=typeof Symbol&&null!=t[Symbol.iterator]||null!=t["@@iterator"])return Array.from(t)}(t)||function(t,n){if(!t)return;if("string"==typeof t)return y(t,n);var e=Object.prototype.toString.call(t).slice(8,-1);"Object"===e&&t.constructor&&(e=t.constructor.name);if("Map"===e||"Set"===e)return Array.from(t);if("Arguments"===e||/^(?:Ui|I)nt(?:8|16|32)(?:Clamped)?Array$/.test(e))return y(t,n)}(t)||function(){throw new TypeError("Invalid attempt to spread non-iterable instance.\nIn order to be iterable, non-array objects must have a [Symbol.iterator]() method.")}()}function y(t,n){(null==n||n>t.length)&&(n=t.length);for(var e=0,r=new Array(n);e<n;e++)r[e]=t[e];return r}Number.isInteger||(Number.isInteger=function(t){return"number"==typeof t&&isFinite(t)&&Math.floor(t)===t}),Number.EPSILON||(Number.EPSILON=2220446049250313e-31);var g=d(Math.pow(10,-6));function d(t){var n=arguments.length>1&&void 0!==arguments[1]?arguments[1]:6;if(Number.isInteger(t))return t;var e=Math.pow(10,n);return Math.round((+t+Number.EPSILON)*e)/e}function p(t,n){var e=arguments.length>2&&void 0!==arguments[2]?arguments[2]:g;return Math.abs(t-n)<e}var m=Math.PI/180;function b(t){return t}function w(t,n,e){var r=1-e;return 3*e*r*(t*r+n*e)+e*e*e}function x(){var t=arguments.length>0&&void 0!==arguments[0]?arguments[0]:0,n=arguments.length>1&&void 0!==arguments[1]?arguments[1]:0,e=arguments.length>2&&void 0!==arguments[2]?arguments[2]:1,r=arguments.length>3&&void 0!==arguments[3]?arguments[3]:1;return t<0||t>1||e<0||e>1?null:p(t,n)&&p(e,r)?b:function(i){if(i<=0)return t>0?i*n/t:0===n&&e>0?i*r/e:0;if(i>=1)return e<1?1+(i-1)*(r-1)/(e-1):1===e&&t<1?1+(i-1)*(n-1)/(t-1):1;for(var u,o=0,a=1;o<a;){var l=w(t,e,u=(o+a)/2);if(p(i,l))break;l<i?o=u:a=u}return w(n,r,u)}}function A(){return 1}function k(t){return 1===t?1:0}function _(){var t=arguments.length>0&&void 0!==arguments[0]?arguments[0]:1,n=arguments.length>1&&void 0!==arguments[1]?arguments[1]:0;if(1===t){if(0===n)return k;if(1===n)return A}var e=1/t;return function(t){return t>=1?1:(t+=n*e)-t%e}}var S=Math.sin,O=Math.cos,j=Math.acos,M=Math.asin,P=Math.tan,E=Math.atan2,I=Math.PI/180,R=180/Math.PI,F=Math.sqrt,N=function(){function t(){var n=arguments.length>0&&void 0!==arguments[0]?arguments[0]:1,e=arguments.length>1&&void 0!==arguments[1]?arguments[1]:0,i=arguments.length>2&&void 0!==arguments[2]?arguments[2]:0,u=arguments.length>3&&void 0!==arguments[3]?arguments[3]:1,o=arguments.length>4&&void 0!==arguments[4]?arguments[4]:0,a=arguments.length>5&&void 0!==arguments[5]?arguments[5]:0;r(this,t),this.m=[n,e,i,u,o,a],this.i=null,this.w=null,this.s=null}return u(t,[{key:"determinant",get:function(){var t=this.m;return t[0]*t[3]-t[1]*t[2]}},{key:"isIdentity",get:function(){if(null===this.i){var t=this.m;this.i=1===t[0]&&0===t[1]&&0===t[2]&&1===t[3]&&0===t[4]&&0===t[5]}return this.i}},{key:"point",value:function(t,n){var e=this.m;return{x:e[0]*t+e[2]*n+e[4],y:e[1]*t+e[3]*n+e[5]}}},{key:"translateSelf",value:function(){var t=arguments.length>0&&void 0!==arguments[0]?arguments[0]:0,n=arguments.length>1&&void 0!==arguments[1]?arguments[1]:0;if(!t&&!n)return this;var e=this.m;return e[4]+=e[0]*t+e[2]*n,e[5]+=e[1]*t+e[3]*n,this.w=this.s=this.i=null,this}},{key:"rotateSelf",value:function(){var t=arguments.length>0&&void 0!==arguments[0]?arguments[0]:0;if(t%=360){var n=S(t*=I),e=O(t),r=this.m,i=r[0],u=r[1];r[0]=i*e+r[2]*n,r[1]=u*e+r[3]*n,r[2]=r[2]*e-i*n,r[3]=r[3]*e-u*n,this.w=this.s=this.i=null}return this}},{key:"scaleSelf",value:function(){var t=arguments.length>0&&void 0!==arguments[0]?arguments[0]:1,n=arguments.length>1&&void 0!==arguments[1]?arguments[1]:1;if(1!==t||1!==n){var e=this.m;e[0]*=t,e[1]*=t,e[2]*=n,e[3]*=n,this.w=this.s=this.i=null}return this}},{key:"skewSelf",value:function(t,n){if(n%=360,(t%=360)||n){var e=this.m,r=e[0],i=e[1],u=e[2],o=e[3];t&&(t=P(t*I),e[2]+=r*t,e[3]+=i*t),n&&(n=P(n*I),e[0]+=u*n,e[1]+=o*n),this.w=this.s=this.i=null}return this}},{key:"resetSelf",value:function(){var t=arguments.length>0&&void 0!==arguments[0]?arguments[0]:1,n=arguments.length>1&&void 0!==arguments[1]?arguments[1]:0,e=arguments.length>2&&void 0!==arguments[2]?arguments[2]:0,r=arguments.length>3&&void 0!==arguments[3]?arguments[3]:1,i=arguments.length>4&&void 0!==arguments[4]?arguments[4]:0,u=arguments.length>5&&void 0!==arguments[5]?arguments[5]:0,o=this.m;return o[0]=t,o[1]=n,o[2]=e,o[3]=r,o[4]=i,o[5]=u,this.w=this.s=this.i=null,this}},{key:"recomposeSelf",value:function(){var t=arguments.length>0&&void 0!==arguments[0]?arguments[0]:null,n=arguments.length>1&&void 0!==arguments[1]?arguments[1]:null,e=arguments.length>2&&void 0!==arguments[2]?arguments[2]:null,r=arguments.length>3&&void 0!==arguments[3]?arguments[3]:null,i=arguments.length>4&&void 0!==arguments[4]?arguments[4]:null;return this.isIdentity||this.resetSelf(),t&&(t.x||t.y)&&this.translateSelf(t.x,t.y),n&&this.rotateSelf(n),e&&(e.x&&this.skewSelf(e.x,0),e.y&&this.skewSelf(0,e.y)),!r||1===r.x&&1===r.y||this.scaleSelf(r.x,r.y),i&&(i.x||i.y)&&this.translateSelf(i.x,i.y),this}},{key:"decompose",value:function(){var t=arguments.length>0&&void 0!==arguments[0]?arguments[0]:0,n=arguments.length>1&&void 0!==arguments[1]?arguments[1]:0,e=this.m,r=e[0]*e[0]+e[1]*e[1],i=[[e[0],e[1]],[e[2],e[3]]],u=F(r);if(0===u)return{origin:{x:d(e[4]),y:d(e[5])},translate:{x:d(t),y:d(n)},scale:{x:0,y:0},skew:{x:0,y:0},rotate:0};i[0][0]/=u,i[0][1]/=u;var o=e[0]*e[3]-e[1]*e[2]<0;o&&(u=-u);var a=i[0][0]*i[1][0]+i[0][1]*i[1][1];i[1][0]-=i[0][0]*a,i[1][1]-=i[0][1]*a;var l=F(i[1][0]*i[1][0]+i[1][1]*i[1][1]);if(0===l)return{origin:{x:d(e[4]),y:d(e[5])},translate:{x:d(t),y:d(n)},scale:{x:d(u),y:0},skew:{x:0,y:0},rotate:0};i[1][0]/=l,i[1][1]/=l,a/=l;var s=0;return i[1][1]<0?(s=j(i[1][1])*R,i[0][1]<0&&(s=360-s)):s=M(i[0][1])*R,o&&(s=-s),a=E(a,F(i[0][0]*i[0][0]+i[0][1]*i[0][1]))*R,o&&(a=-a),{origin:{x:d(e[4]),y:d(e[5])},translate:{x:d(t),y:d(n)},scale:{x:d(u),y:d(l)},skew:{x:d(a),y:0},rotate:d(s)}}},{key:"clone",value:function(){var t=this.m;return new this.constructor(t[0],t[1],t[2],t[3],t[4],t[5])}},{key:"toString",value:function(){var t=arguments.length>0&&void 0!==arguments[0]?arguments[0]:" ";if(null===this.s){var n=this.m.map((function(t){return d(t)}));1===n[0]&&0===n[1]&&0===n[2]&&1===n[3]?this.s="translate("+n[4]+t+n[5]+")":this.s="matrix("+n.join(t)+")"}return this.s}}],[{key:"create",value:function(t){return t?Array.isArray(t)?f(this,v(t)):t instanceof this?t.clone():(new this).recomposeSelf(t.origin,t.rotate,t.skew,t.scale,t.translate):new this}}]),t}();function T(t,n,e){return t>=.5?e:n}function q(t,n,e){return 0===t||n===e?n:t*(e-n)+n}function B(t,n,e){var r=q(t,n,e);return r<=0?0:r}function L(t,n,e){var r=q(t,n,e);return r<=0?0:r>=1?1:r}function C(t,n,e){return 0===t?n:1===t?e:{x:q(t,n.x,e.x),y:q(t,n.y,e.y)}}function D(t,n,e){var r=function(t,n,e){return Math.round(q(t,n,e))}(t,n,e);return r<=0?0:r>=255?255:r}function z(t,n,e){return 0===t?n:1===t?e:{r:D(t,n.r,e.r),g:D(t,n.g,e.g),b:D(t,n.b,e.b),a:q(t,null==n.a?1:n.a,null==e.a?1:e.a)}}function V(t,n){for(var e=[],r=0;r<t;r++)e.push(n);return e}function G(t,n){if(--n<=0)return t;var e=(t=Object.assign([],t)).length;do{for(var r=0;r<e;r++)t.push(t[r])}while(--n>0);return t}var Y,$=function(){function t(n){r(this,t),this.list=n,this.length=n.length}return u(t,[{key:"setAttribute",value:function(t,n){for(var e=this.list,r=0;r<this.length;r++)e[r].setAttribute(t,n)}},{key:"removeAttribute",value:function(t){for(var n=this.list,e=0;e<this.length;e++)n[e].removeAttribute(t)}},{key:"style",value:function(t,n){for(var e=this.list,r=0;r<this.length;r++)e[r].style[t]=n}}]),t}(),U=/-./g,Q=function(t,n){return n.toUpperCase()};function H(t){return"function"==typeof t?t:T}function J(t){return t?"function"==typeof t?t:Array.isArray(t)?function(t){var n=arguments.length>1&&void 0!==arguments[1]?arguments[1]:b;if(!Array.isArray(t))return n;switch(t.length){case 1:return _(t[0])||n;case 2:return _(t[0],t[1])||n;case 4:return x(t[0],t[1],t[2],t[3])||n}return n}(t,null):function(t,n){var e=arguments.length>2&&void 0!==arguments[2]?arguments[2]:b;switch(t){case"linear":return b;case"steps":return _(n.steps||1,n.jump||0)||e;case"bezier":case"cubic-bezier":return x(n.x1||0,n.y1||0,n.x2||0,n.y2||0)||e}return e}(t.type,t.value,null):null}function Z(t,n,e){var r=arguments.length>3&&void 0!==arguments[3]&&arguments[3],i=n.length-1;if(t<=n[0].t)return r?[0,0,n[0].v]:n[0].v;if(t>=n[i].t)return r?[i,1,n[i].v]:n[i].v;var u,o=n[0],a=null;for(u=1;u<=i;u++){if(!(t>n[u].t)){a=n[u];break}o=n[u]}return null==a?r?[i,1,n[i].v]:n[i].v:o.t===a.t?r?[u,1,a.v]:a.v:(t=(t-o.t)/(a.t-o.t),o.e&&(t=o.e(t)),r?[u,t,e(t,o.v,a.v)]:e(t,o.v,a.v))}function K(t,n){var e=arguments.length>2&&void 0!==arguments[2]?arguments[2]:null;return t&&t.length?"function"!=typeof n?null:("function"!=typeof e&&(e=null),function(r){var i=Z(r,t,n);return null!=i&&e&&(i=e(i)),i}):null}function W(t,n){return t.t-n.t}function X(t,n,r,i,u){var o,a="@"===r[0],l="#"===r[0],s=Y[r],f=T;switch(a?(o=r.substr(1),r=o.replace(U,Q)):l&&(r=r.substr(1)),e(s)){case"function":if(f=s(i,u,Z,J,r,a,n,t),l)return f;break;case"string":f=K(i,H(s));break;case"object":if((f=K(i,H(s.i),s.f))&&"function"==typeof s.u)return s.u(n,f,r,a,t)}return f?function(t,n,e){if(arguments.length>3&&void 0!==arguments[3]&&arguments[3])return t instanceof $?function(r){return t.style(n,e(r))}:function(r){return t.style[n]=e(r)};if(Array.isArray(n)){var r=n.length;return function(i){var u=e(i);if(null==u)for(var o=0;o<r;o++)t[o].removeAttribute(n);else for(var a=0;a<r;a++)t[a].setAttribute(n,u)}}return function(r){var i=e(r);null==i?t.removeAttribute(n):t.setAttribute(n,i)}}(n,r,f,a):null}function tt(t,n,r,i){if(!i||"object"!==e(i))return null;var u=null,o=null;return Array.isArray(i)?o=function(t){if(!t||!t.length)return null;for(var n=0;n<t.length;n++)t[n].e&&(t[n].e=J(t[n].e));return t.sort(W)}(i):(o=i.keys,u=i.data||null),o?X(t,n,r,o,u):null}function nt(t,n,e){if(!e)return null;var r=[];for(var i in e)if(e.hasOwnProperty(i)){var u=tt(t,n,i,e[i]);u&&r.push(u)}return r.length?r:null}function et(t,n){if(!n.settings.duration||n.settings.duration<0)return null;var e,r,i,u,o,a=function(t,n){if(!n)return null;var e=[];if(Array.isArray(n))for(var r=n.length,i=0;i<r;i++){var u=n[i];if(2===u.length){var o=null;if("string"==typeof u[0])o=t.getElementById(u[0]);else if(Array.isArray(u[0])){o=[];for(var a=0;a<u[0].length;a++)if("string"==typeof u[0][a]){var l=t.getElementById(u[0][a]);l&&o.push(l)}o=o.length?1===o.length?o[0]:new $(o):null}if(o){var s=nt(t,o,u[1]);s&&(e=e.concat(s))}}}else for(var f in n)if(n.hasOwnProperty(f)){var c=t.getElementById(f);if(c){var h=nt(t,c,n[f]);h&&(e=e.concat(h))}}return e.length?e:null}(t,n.elements);return a?(e=a,r=n.settings,i=r.duration,u=e.length,o=null,function(t,n){var a=r.iterations||1/0,l=(r.alternate&&a%2==0)^r.direction>0?i:0,s=t%i,f=1+(t-s)/i;n*=r.direction,r.alternate&&f%2==0&&(n=-n);var c=!1;if(f>a)s=l,c=!0,-1===r.fill&&(s=r.direction>0?0:i);else if(n<0&&(s=i-s),s===o)return!1;o=s;for(var h=0;h<u;h++)e[h](s);return c}):null}function rt(t,n){if(Y=n,!t||!t.root||!Array.isArray(t.animations))return null;var e=function(t){for(var n=document.getElementsByTagName("svg"),e=0;e<n.length;e++)if(n[e].id===t.root&&!n[e].svgatorAnimation)return n[e].svgatorAnimation=!0,n[e];return null}(t);if(!e)return null;var r=t.animations.map((function(t){return et(e,t)})).filter((function(t){return!!t}));return r.length?{svg:e,animations:r,animationSettings:t.animationSettings,options:t.options||void 0}:null}function it(t){return+("0x"+(t.replace(/[^0-9a-fA-F]+/g,"")||27))}function ut(t,n,e){return!t||!e||n>t.length?t:t.substring(0,n)+ut(t.substring(n+1),e,e)}function ot(t){var n=arguments.length>1&&void 0!==arguments[1]?arguments[1]:27;return!t||t%n?t%n:ot(t/n,n)}function at(t,n,e){if(t&&t.length){var r=it(e),i=it(n),u=ot(r)+5,o=ut(t,ot(r,5),u);return o=o.replace(/\x7c$/g,"==").replace(/\x2f$/g,"="),o=function(t,n,e){var r=+("0x"+t.substring(0,4));t=t.substring(4);for(var i=n%r+e%27,u=[],o=0;o<t.length;o+=2)if("|"!==t[o]){var a=+("0x"+t[o]+t[o+1])-i;u.push(a)}else{var l=+("0x"+t.substring(o+1,o+1+4))-i;o+=3,u.push(l)}return String.fromCharCode.apply(String,u)}(o=(o=atob(o)).replace(/[\x41-\x5A]/g,""),i,r),o=JSON.parse(o)}}var lt=[{key:"alternate",def:!1},{key:"fill",def:1},{key:"iterations",def:0},{key:"direction",def:1},{key:"speed",def:1},{key:"fps",def:100}],st=function(){function t(n,e){var i=this,u=arguments.length>2&&void 0!==arguments[2]?arguments[2]:null;r(this,t),this._id=0,this._running=!1,this._rollingBack=!1,this._animations=n,this._settings=e,(!u||u<"2022-05-02")&&delete this._settings.speed,lt.forEach((function(t){i._settings[t.key]=i._settings[t.key]||t.def})),this.duration=e.duration,this.offset=e.offset||0,this.rollbackStartOffset=0}return u(t,[{key:"alternate",get:function(){return this._settings.alternate}},{key:"fill",get:function(){return this._settings.fill}},{key:"iterations",get:function(){return this._settings.iterations}},{key:"direction",get:function(){return this._settings.direction}},{key:"speed",get:function(){return this._settings.speed}},{key:"fps",get:function(){return this._settings.fps}},{key:"maxFiniteDuration",get:function(){return this.iterations>0?this.iterations*this.duration:this.duration}},{key:"_apply",value:function(t){for(var n=arguments.length>1&&void 0!==arguments[1]?arguments[1]:{},e=this._animations,r=e.length,i=0,u=0;u<r;u++)n[u]?i++:(n[u]=e[u](t,1),n[u]&&i++);return i}},{key:"_rollback",value:function(t){var n=this,e=1/0,r=null;this.rollbackStartOffset=t,this._rollingBack=!0,this._running=!0;this._id=window.requestAnimationFrame((function i(u){if(n._rollingBack){null==r&&(r=u);var o=Math.round(t-(u-r)*n.speed);if(o>n.duration&&e!==1/0){var a=!!n.alternate&&o/n.duration%2>1,l=o%n.duration;o=(l+=a?n.duration:0)||n.duration}var s=(n.fps?1e3/n.fps:0)*n.speed,f=Math.max(0,o);f<=e-s&&(n.offset=f,e=f,n._apply(f));var c=n.iterations>0&&-1===n.fill&&o>=n.maxFiniteDuration;(o<=0||n.offset<o||c)&&n.stop(),n._id=window.requestAnimationFrame(i)}}))}},{key:"_start",value:function(){var t=this,n=arguments.length>0&&void 0!==arguments[0]?arguments[0]:0,e=-1/0,r=null,i={};this._running=!0;var u=function u(o){null==r&&(r=o);var a=Math.round((o-r)*t.speed+n),l=(t.fps?1e3/t.fps:0)*t.speed;if(a>=e+l&&!t._rollingBack&&(t.offset=a,e=a,t._apply(a,i)===t._animations.length))return void t.pause(!0);t._id=window.requestAnimationFrame(u)};this._id=window.requestAnimationFrame(u)}},{key:"_pause",value:function(){this._id&&window.cancelAnimationFrame(this._id),this._running=!1}},{key:"play",value:function(){if(!this._running)return this._rollingBack?this._rollback(this.offset):this._start(this.offset)}},{key:"stop",value:function(){this._pause(),this.offset=0,this.rollbackStartOffset=0,this._rollingBack=!1,this._apply(0)}},{key:"reachedToEnd",value:function(){return this.iterations>0&&this.offset>=this.iterations*this.duration}},{key:"restart",value:function(){var t=arguments.length>0&&void 0!==arguments[0]&&arguments[0];this.stop(t),this.play(t)}},{key:"pause",value:function(){this._pause()}},{key:"reverse",value:function(){this.direction=-this.direction}}],[{key:"build",value:function(t,n){delete t.animationSettings,t.options=at(t.options,t.root,"5c7f360c"),t.animations.map((function(n){n.settings=at(n.s,t.root,"5c7f360c"),delete n.s,t.animationSettings||(t.animationSettings=n.settings)}));var e=t.version;if(!(t=rt(t,n)))return null;var r=t.options||{},i=new this(t.animations,t.animationSettings,e);return{el:t.svg,options:r,player:i}}},{key:"push",value:function(t){return this.build(t)}},{key:"init",value:function(){var t=this,n=window.__SVGATOR_PLAYER__&&window.__SVGATOR_PLAYER__["5c7f360c"];Array.isArray(n)&&n.splice(0).forEach((function(n){return t.build(n)}))}}]),t}();function ft(t){return d(t)+""}function ct(t){var n=arguments.length>1&&void 0!==arguments[1]?arguments[1]:" ";return t&&t.length?t.map(ft).join(n):""}function ht(t){if(!t)return"transparent";if(null==t.a||t.a>=1){var n=function(t){return 1===(t=parseInt(t).toString(16)).length?"0"+t:t},e=function(t){return t.charAt(0)===t.charAt(1)},r=n(t.r),i=n(t.g),u=n(t.b);return e(r)&&e(i)&&e(u)&&(r=r.charAt(0),i=i.charAt(0),u=u.charAt(0)),"#"+r+i+u}return"rgba("+t.r+","+t.g+","+t.b+","+t.a+")"}function vt(t){return t?"url(#"+t+")":"none"}!function(){for(var t=0,n=["ms","moz","webkit","o"],e=0;e<n.length&&!window.requestAnimationFrame;++e)window.requestAnimationFrame=window[n[e]+"RequestAnimationFrame"],window.cancelAnimationFrame=window[n[e]+"CancelAnimationFrame"]||window[n[e]+"CancelRequestAnimationFrame"];window.requestAnimationFrame||(window.requestAnimationFrame=function(n){var e=Date.now(),r=Math.max(0,16-(e-t)),i=window.setTimeout((function(){n(e+r)}),r);return t=e+r,i},window.cancelAnimationFrame=window.clearTimeout)}();var yt={f:null,i:function(t,n,e){return 0===t?n:1===t?e:{x:B(t,n.x,e.x),y:B(t,n.y,e.y)}},u:function(t,n){return function(e){var r=n(e);t.setAttribute("rx",ft(r.x)),t.setAttribute("ry",ft(r.y))}}},gt={f:null,i:function(t,n,e){return 0===t?n:1===t?e:{width:B(t,n.width,e.width),height:B(t,n.height,e.height)}},u:function(t,n){return function(e){var r=n(e);t.setAttribute("width",ft(r.width)),t.setAttribute("height",ft(r.height))}}};Object.freeze({M:2,L:2,Z:0,H:1,V:1,C:6,Q:4,T:2,S:4,A:7});var dt={},pt=null;function mt(t){var n=function(){if(pt)return pt;if("object"!==("undefined"==typeof document?"undefined":e(document))||!document.createElementNS)return{};var t=document.createElementNS("http://www.w3.org/2000/svg","svg");return t&&t.style?(t.style.position="absolute",t.style.opacity="0.01",t.style.zIndex="-9999",t.style.left="-9999px",t.style.width="1px",t.style.height="1px",pt={svg:t}):{}}().svg;if(!n)return function(t){return null};var r=document.createElementNS(n.namespaceURI,"path");r.setAttributeNS(null,"d",t),r.setAttributeNS(null,"fill","none"),r.setAttributeNS(null,"stroke","none"),n.appendChild(r);var i=r.getTotalLength();return function(t){var n=r.getPointAtLength(i*t);return{x:n.x,y:n.y}}}function bt(t){return dt[t]?dt[t]:dt[t]=mt(t)}function wt(t,n,e,r){if(!t||!r)return!1;var i=["M",t.x,t.y];if(n&&e&&(i.push("C"),i.push(n.x),i.push(n.y),i.push(e.x),i.push(e.y)),n?!e:e){var u=n||e;i.push("Q"),i.push(u.x),i.push(u.y)}return n||e||i.push("L"),i.push(r.x),i.push(r.y),i.join(" ")}function xt(t,n,e,r){var i=arguments.length>4&&void 0!==arguments[4]?arguments[4]:1,u=wt(t,n,e,r),o=bt(u);try{return o(i)}catch(t){return null}}function At(t,n,e){return t+(n-t)*e}function kt(t,n,e){var r=arguments.length>3&&void 0!==arguments[3]&&arguments[3],i={x:At(t.x,n.x,e),y:At(t.y,n.y,e)};return r&&(i.a=_t(t,n)),i}function _t(t,n){return Math.atan2(n.y-t.y,n.x-t.x)}function St(t,n,e,r){var i=1-r;return i*i*t+2*i*r*n+r*r*e}function Ot(t,n,e,r){return 2*(1-r)*(n-t)+2*r*(e-n)}function jt(t,n,e,r){var i=arguments.length>4&&void 0!==arguments[4]&&arguments[4],u=xt(t,n,null,e,r);return u||(u={x:St(t.x,n.x,e.x,r),y:St(t.y,n.y,e.y,r)}),i&&(u.a=Mt(t,n,e,r)),u}function Mt(t,n,e,r){return Math.atan2(Ot(t.y,n.y,e.y,r),Ot(t.x,n.x,e.x,r))}function Pt(t,n,e,r,i){var u=i*i;return i*u*(r-t+3*(n-e))+3*u*(t+e-2*n)+3*i*(n-t)+t}function Et(t,n,e,r,i){var u=1-i;return 3*(u*u*(n-t)+2*u*i*(e-n)+i*i*(r-e))}function It(t,n,e,r,i){var u=arguments.length>5&&void 0!==arguments[5]&&arguments[5],o=xt(t,n,e,r,i);return o||(o={x:Pt(t.x,n.x,e.x,r.x,i),y:Pt(t.y,n.y,e.y,r.y,i)}),u&&(o.a=Rt(t,n,e,r,i)),o}function Rt(t,n,e,r,i){return Math.atan2(Et(t.y,n.y,e.y,r.y,i),Et(t.x,n.x,e.x,r.x,i))}function Ft(t,n,e){var r=arguments.length>3&&void 0!==arguments[3]&&arguments[3];if(Tt(n)){if(qt(e))return jt(n,e.start,e,t,r)}else if(Tt(e)){if(Bt(n))return jt(n,n.end,e,t,r)}else{if(Bt(n))return qt(e)?It(n,n.end,e.start,e,t,r):jt(n,n.end,e,t,r);if(qt(e))return jt(n,e.start,e,t,r)}return kt(n,e,t,r)}function Nt(t,n,e){var r=Ft(t,n,e,!0);return r.a=function(t){return arguments.length>1&&void 0!==arguments[1]&&arguments[1]?t+Math.PI:t}(r.a)/m,r}function Tt(t){return!t.type||"corner"===t.type}function qt(t){return null!=t.start&&!Tt(t)}function Bt(t){return null!=t.end&&!Tt(t)}var Lt=new N;var Ct={f:ft,i:q},Dt={f:ft,i:L};function zt(t,n,e){return t.map((function(t){return function(t,n,e){var r=t.v;if(!r||"g"!==r.t||r.s||!r.v||!r.r)return t;var i=e.getElementById(r.r),u=i&&i.querySelectorAll("stop")||[];return r.s=r.v.map((function(t,n){var e=u[n]&&u[n].getAttribute("offset");return{c:t,o:e=d(parseInt(e)/100)}})),delete r.v,t}(t,0,e)}))}var Vt={gt:"gradientTransform",c:{x:"cx",y:"cy"},rd:"r",f:{x:"x1",y:"y1"},to:{x:"x2",y:"y2"}};function Gt(t,n,r,i,u,o,a,l){return zt(t,0,l),n=function(t,n,e){for(var r,i,u,o=t.length-1,a={},l=0;l<=o;l++)(r=t[l]).e&&(r.e=n(r.e)),r.v&&"g"===(i=r.v).t&&i.r&&(u=e.getElementById(i.r))&&(a[i.r]={e:u,s:u.querySelectorAll("stop")});return a}(t,i,l),function(i){var u=r(i,t,Yt);if(!u)return"none";if("c"===u.t)return ht(u.v);if("g"===u.t){if(!n[u.r])return vt(u.r);var o=n[u.r];return function(t,n){for(var e=t.s,r=e.length;r<n.length;r++){var i=e[e.length-1].cloneNode();i.id=Qt(i.id),t.e.appendChild(i),e=t.s=t.e.querySelectorAll("stop")}for(var u=0,o=e.length,a=n.length-1;u<o;u++)e[u].setAttribute("stop-color",ht(n[Math.min(u,a)].c)),e[u].setAttribute("offset",n[Math.min(u,a)].o)}(o,u.s),Object.keys(Vt).forEach((function(t){if(void 0!==u[t])if("object"!==e(Vt[t])){var n,r="gt"===t?(n=u[t],Array.isArray(n)?"matrix("+n.join(" ")+")":""):u[t],i=Vt[t];o.e.setAttribute(i,r)}else Object.keys(Vt[t]).forEach((function(n){if(void 0!==u[t][n]){var e=u[t][n],r=Vt[t][n];o.e.setAttribute(r,e)}}))})),vt(u.r)}return"none"}}function Yt(t,e,r){if(0===t)return e;if(1===t)return r;if(e&&r){var i=e.t;if(i===r.t)switch(e.t){case"c":return{t:i,v:z(t,e.v,r.v)};case"g":if(e.r===r.r){var u={t:i,s:$t(t,e.s,r.s),r:e.r};return e.gt&&r.gt&&(u.gt=function(t,n,e){var r=n.length;if(r!==e.length)return T(t,n,e);for(var i=new Array(r),u=0;u<r;u++)i[u]=q(t,n[u],e[u]);return i}(t,e.gt,r.gt)),e.c?(u.c=C(t,e.c,r.c),u.rd=B(t,e.rd,r.rd)):e.f&&(u.f=C(t,e.f,r.f),u.to=C(t,e.to,r.to)),u}}if("c"===e.t&&"g"===r.t||"c"===r.t&&"g"===e.t){var o="c"===e.t?e:r,a="g"===e.t?n({},e):n({},r),l=a.s.map((function(t){return{c:o.v,o:t.o}}));return a.s="c"===e.t?$t(t,l,a.s):$t(t,a.s,l),a}}return T(t,e,r)}function $t(t,n,e){if(n.length===e.length)return n.map((function(n,r){return Ut(t,n,e[r])}));for(var r=Math.max(n.length,e.length),i=[],u=0;u<r;u++){var o=Ut(t,n[Math.min(u,n.length-1)],e[Math.min(u,e.length-1)]);i.push(o)}return i}function Ut(t,n,e){return{o:L(t,n.o,e.o||0),c:z(t,n.c,e.c||{})}}function Qt(t){return t.replace(/-fill-([0-9]+)$/,(function(t,n){return"-fill-"+(+n+1)}))}var Ht={fill:Gt,"fill-opacity":Dt,stroke:Gt,"stroke-opacity":Dt,"stroke-width":Ct,"stroke-dashoffset":{f:ft,i:q},"stroke-dasharray":{f:function(t){var n=arguments.length>1&&void 0!==arguments[1]?arguments[1]:" ";return t&&t.length>0&&(t=t.map((function(t){return d(t,4)}))),ct(t,n)},i:function(t,n,e){var r,i,u,o=n.length,a=e.length;if(o!==a)if(0===o)n=V(o=a,0);else if(0===a)a=o,e=V(o,0);else{var l=(u=(r=o)*(i=a)/function(t,n){for(var e;n;)e=n,n=t%n,t=e;return t||1}(r,i))<0?-u:u;n=G(n,Math.floor(l/o)),e=G(e,Math.floor(l/a)),o=a=l}for(var s=[],f=0;f<o;f++)s.push(d(B(t,n[f],e[f])));return s}},opacity:Dt,transform:function(t,n,r,i){if(!(t=function(t,n){if(!t||"object"!==e(t))return null;var r=!1;for(var i in t)t.hasOwnProperty(i)&&(t[i]&&t[i].length?(t[i].forEach((function(t){t.e&&(t.e=n(t.e))})),r=!0):delete t[i]);return r?t:null}(t,i)))return null;var u=function(e,i,u){var o=arguments.length>3&&void 0!==arguments[3]?arguments[3]:null;return t[e]?r(i,t[e],u):n&&n[e]?n[e]:o};return n&&n.a&&t.o?function(n){var e=r(n,t.o,Nt);return Lt.recomposeSelf(e,u("r",n,q,0)+e.a,u("k",n,C),u("s",n,C),u("t",n,C)).toString()}:function(t){return Lt.recomposeSelf(u("o",t,Ft,null),u("r",t,q,0),u("k",t,C),u("s",t,C),u("t",t,C)).toString()}},r:Ct,"#size":gt,"#radius":yt,_:function(t,n){if(Array.isArray(t))for(var e=0;e<t.length;e++)this[t[e]]=n;else this[t]=n}},Jt=function(t){!function(t,n){if("function"!=typeof n&&null!==n)throw new TypeError("Super expression must either be null or a function");t.prototype=Object.create(n&&n.prototype,{constructor:{value:t,writable:!0,configurable:!0}}),n&&l(t,n)}(o,t);var n,e,i=(n=o,e=s(),function(){var t,r=a(n);if(e){var i=a(this).constructor;t=Reflect.construct(r,arguments,i)}else t=r.apply(this,arguments);return c(this,t)});function o(){return r(this,o),i.apply(this,arguments)}return u(o,null,[{key:"build",value:function(t){var n=h(a(o),"build",this).call(this,t,Ht);if(!n)return null;n.el,n.options,function(t,n,e){t.play()}(n.player)}}]),o}(st);return Jt.init(),Jt}));
(function(s,i,o,w,a,b){w[o]=w[o]||{};w[o][s]=w[o][s]||[];w[o][s].push(i);})('5c7f360c',{"root":"eUnDS1XNQ7H1","version":"2022-05-04","animations":[{"elements":{"eUnDS1XNQ7H20":{"transform":{"data":{"t":{"x":-147.5,"y":-158}},"keys":{"o":[{"t":0,"v":{"x":147.5,"y":298,"type":"corner"}},{"t":400,"v":{"x":147.5,"y":193.741638,"type":"corner"}}]}}}},"s":"MEDA1ZDk2M2Q3ZjkwOGBQ3Y0M4Zjg0OGE4OTNVkNTU0ZTRiNGI0YjQ3WM2Q3Zjg0OGQ4MFE3ZQVQ4Zjg0OGE4OTNkNTPVDNGM0NzNkODQ4ZjgYwOGQ3YzhmODQ4YTg5POGUzZDU1NGM0NzNkOHDE4NDg3ODczZDU1NGEM0N1QzZDdjODc4ZjgDwOGQ4OTdjOGY4MDNkNNTU4MTdjODc4ZTgwNVDczZDhlTzhiODA4MDEdmM2Q1NUo0YzQ3M2QF4MThiOGVWM2Q1NTRjJNGI0Yjk4"}],"options":"MUDAxMDg4MmZUODA4MTMZlN2Y4MTJmNDcyZk8M3OTdjVTZlNzEyZjhhP"},'__SVGATOR_PLAYER__',window)
]]></script>
</svg>
