<svg width="440" height="118" viewBox="0 0 440 118" fill="none" xmlns="http://www.w3.org/2000/svg">
<path fill-rule="evenodd" clip-rule="evenodd" d="M291.859 113.063C292.026 88.7268 291.859 64.3938 291.359 40.0628C290.642 40.6068 290.142 41.2738 289.859 42.0628C279.723 54.3748 269.723 66.8748 259.859 79.5628C258.192 80.2298 256.526 80.2298 254.859 79.5628C235.789 55.4138 217.456 30.7467 199.859 5.56275C200.718 3.50975 202.051 1.84275 203.859 0.56275C210.276 -0.30725 216.61 0.02675 222.859 1.56275C234.384 16.4157 245.884 31.2488 257.359 46.0628C268.692 31.5578 279.859 16.8908 290.859 2.06275C291.667 1.75475 292.334 1.25475 292.859 0.56275C298.859 -0.10425 304.859 -0.10425 310.859 0.56275C311.692 1.39575 312.526 2.22975 313.359 3.06275C314.026 40.0628 314.026 77.0628 313.359 114.063C312.859 115.23 312.026 116.063 310.859 116.563C305.192 117.23 299.526 117.23 293.859 116.563C292.536 115.747 291.87 114.58 291.859 113.063Z" fill="#2A406B"/>
<path fill-rule="evenodd" clip-rule="evenodd" d="M343.858 0.0626406C363.861 -0.104359 383.861 0.0626406 403.858 0.562641C431.338 7.66764 441.838 25.1676 435.358 53.0626C430.829 61.9236 423.996 68.4236 414.858 72.5626C423.831 85.3456 432.164 98.5116 439.858 112.063C439.482 113.946 438.482 115.446 436.858 116.563C429.75 117.487 422.75 117.154 415.858 115.563C407.858 102.896 399.858 90.2296 391.858 77.5626C382.197 77.0626 372.53 76.8966 362.858 77.0626C363.025 89.4006 362.858 101.734 362.358 114.063C361.525 114.896 360.691 115.73 359.858 116.563C354.191 117.23 348.525 117.23 342.858 116.563C342.025 115.73 341.191 114.896 340.358 114.063C339.691 95.7296 339.691 77.3956 340.358 59.0626C340.941 57.5606 341.774 56.2276 342.858 55.0626C363.532 54.5276 384.199 53.6936 404.858 52.5626C413.082 48.5916 415.916 42.0916 413.358 33.0626C410.757 26.5096 405.924 23.0096 398.858 22.5626C380.191 22.2296 361.525 21.8956 342.858 21.5626C342.025 20.7296 341.191 19.8956 340.358 19.0626C339.529 13.6986 339.695 8.36464 340.858 3.06264C341.906 2.01464 342.906 1.01464 343.858 0.0626406Z" fill="#2B416C"/>
<path fill-rule="evenodd" clip-rule="evenodd" d="M93.8596 10.0601C101.458 9.89408 104.291 13.5611 102.36 21.0601C91.6926 49.0601 81.0266 77.0601 70.3596 105.06C67.0806 110.651 63.0806 111.318 58.3596 107.06C57.6926 104.393 57.6926 101.727 58.3596 99.0601C68.5556 72.8051 78.5556 46.4711 88.3596 20.0601C89.4576 16.1861 91.2916 12.8531 93.8596 10.0601Z" fill="#AC7E50"/>
<path fill-rule="evenodd" clip-rule="evenodd" d="M43.8599 13.0641C50.8109 12.1831 53.9779 15.1831 53.3599 22.0641C40.6789 34.5781 28.1791 47.2451 15.8599 60.0641C28.1791 72.8831 40.6789 85.5501 53.3599 98.0641C54.3889 103.008 52.5559 106.341 47.8599 108.064C46.4219 107.845 45.0889 107.345 43.8599 106.564C29.3599 92.0641 14.8599 77.5641 0.359889 63.0641C-0.346411 60.5931 -0.0131109 58.2591 1.35989 56.0641C15.7284 41.8631 29.8951 27.5291 43.8599 13.0641Z" fill="#AB7C4E"/>
<path fill-rule="evenodd" clip-rule="evenodd" d="M109.861 13.0598C111.888 12.8978 113.888 13.0648 115.861 13.5598C130.028 27.7268 144.194 41.8928 158.361 56.0598C160.166 58.7708 160.166 61.4378 158.361 64.0598C143.622 79.3008 128.455 93.9678 112.861 108.06C106.283 106.67 104.45 103.003 107.361 97.0598C119.709 84.8788 131.875 72.5458 143.861 60.0598C131.542 47.2408 119.042 34.5738 106.361 22.0598C105.341 18.1128 106.508 15.1128 109.861 13.0598Z" fill="#AB7C4E"/>
<path fill-rule="evenodd" clip-rule="evenodd" d="M202.86 77.0621C208.204 76.8961 213.537 77.0631 218.86 77.5621C220.291 78.0271 221.457 78.8611 222.36 80.0621C223.193 91.7431 223.026 103.41 221.86 115.062C221.052 115.37 220.385 115.87 219.86 116.562C214.193 117.229 208.527 117.229 202.86 116.562C202.027 115.729 201.193 114.895 200.36 114.062C199.693 102.729 199.693 91.3951 200.36 80.0621C201.405 79.1891 202.238 78.1891 202.86 77.0621Z" fill="#2A406B"/>
</svg>
