<svg width="563" height="573" viewBox="0 0 563 573" fill="none" xmlns="http://www.w3.org/2000/svg">
<path fill-rule="evenodd" clip-rule="evenodd" d="M28.5 249.5C28.5 251.5 28.5 253.5 28.5 255.5C26.5853 255.784 24.9187 255.451 23.5 254.5C24.8333 254.5 26.1667 254.5 27.5 254.5C27.2155 252.585 27.5489 250.919 28.5 249.5Z" fill="#98A3B7"/>
<path fill-rule="evenodd" clip-rule="evenodd" d="M20.5004 273.502C27.7183 272.568 31.2183 275.568 31.0004 282.502C28.5194 287.391 24.686 288.724 19.5004 286.502C15.2533 281.759 15.5866 277.426 20.5004 273.502Z" fill="#2F446E"/>
<path fill-rule="evenodd" clip-rule="evenodd" d="M0.5 0.5C187.833 0.5 375.167 0.5 562.5 0.5C562.5 191.167 562.5 381.833 562.5 572.5C375.167 572.5 187.833 572.5 0.5 572.5C0.5 381.833 0.5 191.167 0.5 0.5Z" fill="#FEFEFE"/>
<path fill-rule="evenodd" clip-rule="evenodd" d="M537.5 254.502C536.167 254.502 534.833 254.502 533.5 254.502C533.784 252.587 533.451 250.921 532.5 249.502C521.867 174.361 485.867 114.861 424.5 71.0024C350.807 23.6663 272.474 14.333 189.5 43.0024C104.571 78.2722 51.7381 140.772 31 230.502C29.5797 236.767 28.7464 243.1 28.5 249.502C27.5489 250.921 27.2155 252.587 27.5 254.502C26.1667 254.502 24.8333 254.502 23.5 254.502C35.0647 169.489 77.0647 104.323 149.5 59.0024C226.088 16.4171 304.754 12.0838 385.5 46.0024C464.518 83.6923 514.018 145.192 534 230.502C535.68 238.431 536.847 246.431 537.5 254.502Z" fill="#3A4D75"/>
<path fill-rule="evenodd" clip-rule="evenodd" d="M532.5 249.5C533.451 250.919 533.784 252.585 533.5 254.5C534.833 254.5 536.167 254.5 537.5 254.5C536.081 255.451 534.415 255.784 532.5 255.5C532.5 253.5 532.5 251.5 532.5 249.5Z" fill="#98A3B7"/>
<path fill-rule="evenodd" clip-rule="evenodd" d="M533.5 273.502C540.718 272.568 544.218 275.568 544 282.502C540.468 288.292 536.135 288.959 531 284.502C528.584 280.08 529.417 276.413 533.5 273.502Z" fill="#2F446E"/>
<path fill-rule="evenodd" clip-rule="evenodd" d="M22.8474 274.166C30.0654 273.232 33.5654 276.232 33.3474 283.166C29.8154 288.956 25.4824 289.623 20.3474 285.166C17.9314 280.744 18.7644 277.077 22.8474 274.166Z" fill="#2F446E"/>
<path fill-rule="evenodd" clip-rule="evenodd" d="M23.5 307.497C25.451 307.224 26.951 307.89 28 309.497C42.7982 409.606 96.6316 479.439 189.5 518.997C273.915 548.138 353.248 538.138 427.5 488.997C487.679 444.176 522.846 384.342 533 309.497C534.049 307.89 535.549 307.224 537.5 307.497C525.011 400.693 477.344 469.193 394.5 512.997C309.033 552.004 225.7 548.004 144.5 500.997C74.6231 455.225 34.2898 390.725 23.5 307.497Z" fill="#374A73"/>
</svg>
