<svg width="764" height="470" viewBox="0 0 764 470" fill="none" xmlns="http://www.w3.org/2000/svg">
<g style="mix-blend-mode:overlay" opacity="0.21">
<path d="M761.431 143.594L760.525 141.371C759.175 138.065 757.188 135.058 754.675 132.519C752.162 129.981 749.173 127.962 745.88 126.578C742.587 125.194 739.053 124.472 735.48 124.452C731.907 124.433 728.366 125.117 725.058 126.466L456.288 236.031C449.314 238.874 441.495 238.832 434.552 235.914C427.608 232.997 422.109 227.442 419.262 220.473C416.418 213.503 416.46 205.689 419.38 198.75C422.299 191.812 427.857 186.315 434.832 183.472L579.329 124.562C586.303 121.718 591.861 116.222 594.78 109.284C597.701 102.345 597.743 94.5312 594.898 87.5612C592.053 80.592 586.553 75.0373 579.61 72.1203C572.666 69.2024 564.848 69.16 557.873 72.0025L293.167 179.907C286.192 182.75 278.374 182.708 271.429 179.79C264.486 176.872 258.987 171.318 256.141 164.348C253.296 157.378 253.338 149.565 256.258 142.626C259.178 135.687 264.736 130.191 271.71 127.347L341.164 99.0332C348.138 96.1884 353.696 90.6926 356.616 83.754C359.536 76.8153 359.578 69.0015 356.733 62.0314C353.887 55.0622 348.388 49.5084 341.444 46.5905C334.501 43.6727 326.683 43.6303 319.708 46.4728L20.9143 168.271C13.9404 171.115 8.38243 176.611 5.46278 183.549C2.54313 190.489 2.50082 198.302 5.34511 205.272C8.1912 212.241 13.6907 217.796 20.6342 220.714C27.5776 223.631 35.3963 223.673 42.371 220.831L160.371 172.727C167.346 169.884 175.164 169.927 182.107 172.844C189.051 175.762 194.551 181.316 197.397 188.285C200.241 195.255 200.199 203.069 197.279 210.008C194.36 216.946 188.801 222.442 181.827 225.287L149.218 238.581C142.244 241.425 136.686 246.921 133.766 253.86C130.846 260.799 130.804 268.612 133.648 275.582C136.494 282.552 141.993 288.106 148.937 291.024C155.881 293.942 163.699 293.984 170.674 291.141L297.351 239.496C304.326 236.654 312.144 236.696 319.088 239.614C326.031 242.531 331.531 248.086 334.376 255.055C337.22 262.025 337.178 269.838 334.259 276.778C331.339 283.716 325.781 289.212 318.807 292.056L17.6723 414.842C10.6983 417.686 5.14038 423.182 2.22073 430.12C-0.698921 437.059 -0.741231 444.873 2.10306 451.843C4.94916 458.812 10.4486 464.367 17.3921 467.284C24.3355 470.202 32.1543 470.244 39.1289 467.402L445.73 301.657C449.038 300.309 452.579 299.624 456.152 299.644C459.724 299.663 463.258 300.385 466.551 301.769C469.845 303.153 472.833 305.172 475.346 307.711C477.859 310.248 479.846 313.257 481.195 316.562C482.544 319.868 483.23 323.407 483.21 326.978C483.191 330.548 482.468 334.079 481.083 337.37C479.698 340.662 477.678 343.648 475.138 346.159C472.598 348.67 469.589 350.656 466.28 352.005L378.832 387.65C375.524 388.999 372.515 390.985 369.974 393.496C367.435 396.007 365.414 398.993 364.03 402.285C362.644 405.576 361.922 409.107 361.902 412.678C361.883 416.248 362.568 419.787 363.917 423.093L364.824 425.316C366.174 428.622 368.161 431.63 370.673 434.168C373.186 436.706 376.174 438.725 379.467 440.109C382.761 441.493 386.295 442.215 389.867 442.234C393.44 442.253 396.981 441.57 400.289 440.221L683.752 324.663C687.06 323.315 690.071 321.329 692.61 318.818C695.151 316.307 697.17 313.321 698.555 310.029C699.941 306.739 700.663 303.207 700.682 299.637C700.702 296.067 700.017 292.528 698.667 289.221L697.761 286.999C696.412 283.693 694.424 280.685 691.912 278.147C689.399 275.609 686.411 273.591 683.117 272.206C679.824 270.822 676.29 270.1 672.718 270.081C669.145 270.061 665.604 270.746 662.296 272.094L593.254 300.24C589.946 301.588 586.404 302.273 582.832 302.253C579.259 302.234 575.725 301.511 572.432 300.127C569.139 298.743 566.151 296.724 563.639 294.187C561.126 291.649 559.138 288.641 557.789 285.335C556.439 282.029 555.755 278.49 555.774 274.92C555.793 271.349 556.516 267.818 557.901 264.527C559.286 261.236 561.306 258.249 563.846 255.739C566.386 253.228 569.396 251.242 572.704 249.893L746.516 179.035C749.824 177.687 752.834 175.7 755.374 173.19C757.914 170.679 759.933 167.692 761.319 164.402C762.704 161.11 763.427 157.579 763.446 154.009C763.465 150.439 762.781 146.899 761.431 143.594Z" fill="white"/>
</g>
<path d="M550.736 122.421L524.623 109.899L516.091 115.712C497.924 90.5074 473.952 70.044 446.202 56.0506C418.452 42.0572 387.739 34.9451 356.659 35.3156C325.577 35.6853 295.043 43.5267 267.634 58.1772C240.226 72.8276 216.749 93.8554 199.188 119.485H194.883V126.04C194.695 126.34 194.507 126.642 194.32 126.943H165.323C162.074 126.943 158.857 127.583 155.856 128.826C152.855 130.068 150.128 131.889 147.831 134.185C145.534 136.481 143.712 139.206 142.47 142.205C141.226 145.205 140.587 148.419 140.587 151.666C140.588 158.221 143.194 164.509 147.833 169.145C152.471 173.78 158.762 176.385 165.323 176.385H172.533C159.374 223.303 164.387 273.454 186.573 316.845C208.758 360.235 246.488 393.679 292.245 410.513C292.757 410.702 293.275 410.877 293.788 411.061C294.675 411.378 295.562 411.696 296.456 411.999C296.703 412.084 296.951 412.169 297.198 412.251L297.224 412.263C297.787 412.452 298.354 412.629 298.925 412.813C299.448 412.984 299.971 413.156 300.495 413.322C300.694 413.385 300.887 413.452 301.09 413.511C301.581 413.664 302.075 413.809 302.567 413.959L302.932 414.069C303.402 414.212 303.869 414.358 304.34 414.495C304.652 414.587 304.968 414.675 305.282 414.766C305.853 414.931 306.428 415.09 307.001 415.249L307.361 415.35C307.647 415.428 307.933 415.513 308.222 415.592C308.668 415.713 309.119 415.825 309.568 415.942C310.139 416.092 310.712 416.243 311.285 416.388C311.568 416.46 311.85 416.536 312.133 416.607C312.49 416.695 312.851 416.776 313.209 416.868L314.125 417.088C314.601 417.2 315.076 417.318 315.554 417.428L316.069 417.544C316.574 417.659 317.082 417.764 317.587 417.874C318.307 418.031 319.026 418.191 319.748 418.34L320.236 418.438C320.725 418.538 321.217 418.628 321.708 418.724C322.493 418.876 323.272 419.028 324.063 419.17C324.254 419.206 324.444 419.245 324.634 419.28C324.942 419.335 325.254 419.381 325.561 419.434L325.803 419.475C326.569 419.608 327.337 419.74 328.106 419.867C328.457 419.923 328.804 419.981 329.152 420.035C329.501 420.088 329.87 420.141 330.229 420.194C330.878 420.291 331.528 420.384 332.177 420.474C332.689 420.544 333.202 420.615 333.716 420.682C334.035 420.724 334.353 420.767 334.674 420.813C335.21 420.879 335.749 420.943 336.287 421.002C336.888 421.072 337.49 421.142 338.093 421.206C338.426 421.241 338.756 421.282 339.086 421.316C339.327 421.341 339.569 421.359 339.81 421.383C340.018 421.404 340.228 421.42 340.436 421.441C341.033 421.498 341.631 421.555 342.23 421.606C342.682 421.645 343.134 421.683 343.588 421.718C344.025 421.752 344.464 421.783 344.897 421.814C345.391 421.85 345.884 421.887 346.381 421.919C346.975 421.956 347.57 421.988 348.166 422.021C348.633 422.047 349.101 422.074 349.569 422.096C349.899 422.112 350.223 422.129 350.558 422.143C351.355 422.178 352.154 422.2 352.953 422.225C353.391 422.237 353.825 422.256 354.262 422.266L354.755 422.28C356.159 422.31 357.566 422.326 358.976 422.327C360.385 422.328 361.792 422.312 363.197 422.28L363.688 422.266C364.127 422.256 364.561 422.237 364.997 422.225C365.796 422.2 366.596 422.178 367.393 422.143L368.382 422.096C368.849 422.074 369.317 422.047 369.784 422.021C370.38 421.988 370.976 421.956 371.57 421.919C372.066 421.887 372.559 421.85 373.053 421.814C373.492 421.783 373.932 421.752 374.362 421.718C374.792 421.685 375.267 421.645 375.72 421.606C376.319 421.555 376.917 421.498 377.514 421.441C377.723 421.42 377.932 421.404 378.14 421.383C378.381 421.359 378.623 421.341 378.864 421.316C379.195 421.282 379.518 421.241 379.855 421.206C380.459 421.142 381.062 421.076 381.662 421.002C382.202 420.939 382.74 420.879 383.277 420.813C383.597 420.772 383.915 420.729 384.235 420.682C384.749 420.615 385.262 420.551 385.773 420.474C386.423 420.386 387.073 420.294 387.721 420.194C388.08 420.141 388.439 420.091 388.798 420.035C389.157 419.978 389.497 419.923 389.844 419.867C390.614 419.743 391.382 419.612 392.15 419.475L392.389 419.434C392.698 419.381 393.009 419.335 393.317 419.28C393.508 419.245 393.698 419.206 393.889 419.17C394.674 419.028 395.459 418.876 396.244 418.724C396.733 418.628 397.227 418.538 397.714 418.438L398.204 418.34C398.927 418.191 399.643 418.031 400.365 417.874C400.87 417.764 401.378 417.659 401.882 417.544L402.398 417.428C402.875 417.318 403.35 417.2 403.825 417.088C404.133 417.014 404.439 416.943 404.741 416.868C405.1 416.782 405.46 416.701 405.817 416.607C406.101 416.536 406.382 416.46 406.666 416.388C407.239 416.243 407.811 416.092 408.382 415.942C408.831 415.825 409.281 415.713 409.728 415.592C410.017 415.513 410.301 415.428 410.59 415.35L410.948 415.249C411.522 415.09 412.097 414.931 412.668 414.766C412.982 414.675 413.298 414.587 413.61 414.495C414.081 414.358 414.548 414.212 415.017 414.069L415.382 413.959C415.875 413.809 416.369 413.664 416.859 413.511C417.06 413.449 417.252 413.379 417.456 413.322C417.979 413.156 418.502 412.984 419.019 412.813C419.584 412.629 420.152 412.452 420.72 412.263L420.746 412.251C420.995 412.169 421.242 412.084 421.489 411.999C422.383 411.696 423.269 411.378 424.156 411.061C424.67 410.877 425.188 410.702 425.699 410.513C470.392 394.078 507.466 361.778 529.853 319.774C552.24 277.769 558.371 228.999 547.079 182.767L611.928 151.666L550.736 122.421Z" fill="white"/>
<path d="M358.722 422.311C465.662 422.311 552.354 335.675 552.354 228.806C552.354 121.936 465.662 35.3015 358.722 35.3015C251.781 35.3015 165.088 121.936 165.088 228.806C165.088 335.675 251.781 422.311 358.722 422.311Z" fill="#1D3557"/>
<path d="M358.722 372.451C438.108 372.451 502.462 308.139 502.462 228.806C502.462 149.474 438.108 85.1623 358.722 85.1623C279.337 85.1623 214.982 149.474 214.982 228.806C214.982 308.139 279.337 372.451 358.722 372.451Z" fill="#E76F51"/>
<path d="M358.722 422.311C465.662 422.311 552.354 335.675 552.354 228.806C552.354 121.936 465.662 35.3015 358.722 35.3015C251.781 35.3015 165.088 121.936 165.088 228.806C165.088 335.675 251.781 422.311 358.722 422.311Z" stroke="#020129" stroke-width="7" stroke-linecap="round" stroke-linejoin="round"/>
<path d="M165.074 126.947H466.009V176.385H165.074C161.825 176.385 158.609 175.746 155.607 174.503C152.606 173.261 149.88 171.44 147.583 169.145C145.286 166.849 143.464 164.125 142.221 161.126C140.978 158.126 140.338 154.912 140.338 151.666C140.338 148.42 140.978 145.205 142.221 142.207C143.464 139.207 145.286 136.482 147.583 134.187C149.88 131.892 152.606 130.071 155.607 128.829C158.609 127.587 161.825 126.947 165.074 126.947Z" fill="#1D3557"/>
<path opacity="0.93" d="M141.461 144.288C140.714 146.676 140.336 149.164 140.338 151.667C140.338 154.913 140.978 158.127 142.221 161.126C143.464 164.125 145.286 166.85 147.583 169.145C149.88 171.441 152.607 173.261 155.607 174.504C158.609 175.746 161.825 176.386 165.074 176.386H466.009V161.629H165.074C159.802 161.629 154.669 159.947 150.423 156.827C146.175 153.708 143.036 149.316 141.461 144.288Z" fill="#890C27"/>
<path opacity="0.67" d="M165.074 126.947C161.825 126.947 158.609 127.587 155.607 128.829C152.606 130.071 149.88 131.892 147.583 134.187C145.286 136.482 143.464 139.207 142.221 142.207C140.978 145.205 140.338 148.42 140.338 151.666C140.343 153.489 140.549 155.305 140.953 157.083C142.182 151.606 145.241 146.711 149.625 143.203C154.009 139.695 159.457 137.782 165.074 137.781H466.009V126.947H165.074Z" fill="#1D3557"/>
<path d="M164.493 126.875H465.428V176.312H164.493C161.245 176.312 158.028 175.673 155.027 174.431C152.026 173.189 149.299 171.368 147.002 169.072C144.705 166.777 142.883 164.052 141.64 161.054C140.397 158.054 139.758 154.84 139.758 151.594C139.758 148.348 140.397 145.133 141.64 142.134C142.883 139.135 144.705 136.41 147.002 134.115C149.299 131.819 152.026 129.999 155.027 128.756C158.028 127.515 161.245 126.875 164.493 126.875Z" stroke="#020129" stroke-width="7" stroke-linecap="round" stroke-linejoin="round"/>
<path d="M485.194 119.485H466.005V183.846H485.194V119.485Z" fill="#FFDC7B"/>
<path opacity="0.43" d="M485.194 119.374H466.005V134.744H485.194V119.374Z" fill="white"/>
<path d="M485.194 164.286H466.005V183.958H485.194V164.286Z" fill="#F48D31"/>
<path d="M485.194 119.485H466.005V183.846H485.194V119.485Z" stroke="#020129" stroke-width="7" stroke-linecap="round" stroke-linejoin="round"/>
<path d="M213.824 119.485H194.635V183.846H213.824V119.485Z" fill="#FFDC7B"/>
<path opacity="0.43" d="M213.824 119.485H194.635V134.856H213.824V119.485Z" fill="white"/>
<path d="M213.824 164.399H194.635V184.071H213.824V164.399Z" fill="#F48D31"/>
<path d="M213.824 119.485H194.635V183.846H213.824V119.485Z" stroke="#020129" stroke-width="7" stroke-linecap="round" stroke-linejoin="round"/>
<path d="M485.268 166.531L524.686 193.384L611.68 151.666L524.39 109.947L485.268 136.801V166.531Z" fill="#F48D31"/>
<path d="M485.268 166.532L524.685 193.385L611.68 151.666H485.268V166.532Z" fill="#EE6E31"/>
<path d="M485.268 158.03L526.189 171.87L611.68 151.666L524.686 193.385L485.268 166.532V158.03Z" fill="#E65331"/>
<path d="M484.96 145.254L525.88 122.58L600.092 151.666L524.377 109.898L484.96 136.752V145.254Z" fill="#E76F51"/>
<path d="M485.268 166.531L524.686 193.384L611.68 151.666L524.39 109.947L485.268 136.801V166.531Z" stroke="#020129" stroke-width="7" stroke-linecap="round" stroke-linejoin="round"/>
<path d="M612.177 151.666H538.91" stroke="#020129" stroke-width="7" stroke-linecap="round" stroke-linejoin="round"/>
<path d="M540.015 162.5C546.002 162.5 550.856 157.649 550.856 151.666C550.856 145.683 546.002 140.833 540.015 140.833C534.028 140.833 529.174 145.683 529.174 151.666C529.174 157.649 534.028 162.5 540.015 162.5Z" fill="#020129"/>
<path d="M407.784 238.473H309.659V409.392H407.784V238.473Z" fill="#FFA183"/>
<path d="M407.784 238.473H309.659V409.392H407.784V238.473Z" fill="#F9A991"/>
<g style="mix-blend-mode:multiply" opacity="0.58">
<path d="M309.663 284.722C319.307 289.684 329.998 292.269 340.845 292.261H376.606C387.453 292.269 398.144 289.684 407.788 284.722V238.473H309.663V284.722Z" fill="#FFA183"/>
</g>
<path d="M407.784 238.473H309.659V409.392H407.784V238.473Z" stroke="#020129" stroke-width="7" stroke-linecap="round" stroke-linejoin="round"/>
<path d="M282.842 136.569H434.608V223.838C434.608 239.211 428.498 253.955 417.62 264.824C406.742 275.695 391.989 281.802 376.606 281.802H340.84C325.458 281.801 310.705 275.694 299.829 264.824C288.952 253.953 282.842 239.211 282.842 223.838V136.569Z" fill="#F9A991"/>
<path d="M376.601 263.29H340.84C325.458 263.288 310.705 257.181 299.828 246.31C288.951 235.44 282.842 220.697 282.842 205.325V223.838C282.842 231.45 284.342 238.988 287.257 246.02C290.171 253.053 294.444 259.442 299.83 264.825C305.216 270.207 311.61 274.477 318.647 277.39C325.685 280.303 333.227 281.802 340.844 281.802H376.605C384.222 281.802 391.764 280.303 398.802 277.39C405.839 274.477 412.233 270.208 417.619 264.825C423.006 259.442 427.278 253.053 430.193 246.021C433.108 238.988 434.608 231.45 434.608 223.838V205.325C434.608 212.937 433.108 220.475 430.193 227.508C427.278 234.541 423.005 240.931 417.618 246.313C412.232 251.696 405.837 255.966 398.799 258.878C391.761 261.791 384.218 263.29 376.601 263.29Z" fill="#F98568"/>
<path d="M282.842 136.569H434.608V223.838C434.608 239.211 428.498 253.955 417.62 264.824C406.742 275.695 391.989 281.802 376.606 281.802H340.84C325.458 281.801 310.705 275.694 299.829 264.824C288.952 253.953 282.842 239.211 282.842 223.838V136.569Z" stroke="#020129" stroke-width="7" stroke-linecap="round" stroke-linejoin="round"/>
<path d="M320.779 126.551C320.779 116.08 312.286 107.593 301.809 107.593C291.332 107.593 282.838 116.08 282.838 126.551V169.526C282.838 179.997 291.332 188.484 301.809 188.484C312.286 188.484 320.779 179.997 320.779 169.526V126.551Z" fill="#F9A991"/>
<path d="M358.721 117.883C358.721 107.413 350.229 98.9257 339.751 98.9257C329.274 98.9257 320.78 107.413 320.78 117.883V169.383C320.78 179.854 329.274 188.342 339.751 188.342C350.229 188.342 358.721 179.854 358.721 169.383V117.883Z" fill="#F9A991"/>
<path d="M396.663 116.303C396.663 105.833 388.17 97.3447 377.693 97.3447C367.215 97.3447 358.722 105.833 358.722 116.303V169.383C358.722 179.854 367.215 188.342 377.693 188.342C388.17 188.342 396.663 179.854 396.663 169.383V116.303Z" fill="#F9A991"/>
<path d="M434.604 127.996C434.604 117.526 426.111 109.038 415.634 109.038C405.157 109.038 396.663 117.526 396.663 127.996V166.633C396.663 177.103 405.157 185.591 415.634 185.591C426.111 185.591 434.604 177.103 434.604 166.633V127.996Z" fill="#F9A991"/>
<path d="M306.572 168.925H297.044C295.178 168.924 293.33 168.556 291.607 167.842C289.883 167.128 288.317 166.082 286.998 164.762C285.68 163.443 284.634 161.878 283.92 160.155C283.208 158.432 282.841 156.585 282.842 154.72V169.526C282.842 174.554 284.84 179.376 288.398 182.932C291.956 186.487 296.781 188.484 301.813 188.484C306.844 188.484 311.669 186.487 315.227 182.932C318.785 179.376 320.783 174.554 320.783 169.526V154.72C320.784 156.585 320.417 158.433 319.704 160.156C318.989 161.88 317.943 163.446 316.623 164.765C315.303 166.085 313.736 167.13 312.012 167.845C310.287 168.558 308.439 168.925 306.572 168.925Z" fill="#F98568"/>
<path d="M344.515 168.775H334.986C331.219 168.774 327.606 167.278 324.944 164.615C322.28 161.953 320.784 158.343 320.784 154.578V169.383C320.784 174.411 322.783 179.233 326.34 182.789C329.898 186.344 334.723 188.341 339.755 188.341C344.786 188.341 349.612 186.344 353.169 182.789C356.727 179.233 358.725 174.411 358.725 169.383V154.578C358.725 156.443 358.358 158.29 357.644 160.013C356.929 161.735 355.883 163.3 354.563 164.618C353.243 165.937 351.677 166.983 349.952 167.696C348.228 168.409 346.38 168.776 344.515 168.775Z" fill="#F98568"/>
<g style="mix-blend-mode:multiply" opacity="0.58">
<path d="M382.456 168.775H372.928C369.16 168.774 365.548 167.278 362.885 164.615C360.222 161.953 358.725 158.343 358.725 154.578V169.383C358.725 174.411 360.724 179.233 364.282 182.789C367.839 186.344 372.665 188.341 377.697 188.341C382.728 188.341 387.553 186.344 391.111 182.789C394.668 179.233 396.667 174.411 396.667 169.383V154.578C396.667 156.443 396.299 158.29 395.585 160.013C394.871 161.735 393.824 163.3 392.505 164.618C391.184 165.937 389.618 166.983 387.894 167.696C386.17 168.409 384.322 168.776 382.456 168.775Z" fill="#FFA183"/>
</g>
<g style="mix-blend-mode:multiply" opacity="0.58">
<path d="M420.397 166.025H410.869C407.102 166.024 403.489 164.527 400.826 161.865C398.162 159.203 396.667 155.592 396.667 151.827V166.632C396.667 171.66 398.665 176.482 402.223 180.037C405.781 183.593 410.606 185.59 415.638 185.59C420.669 185.59 425.494 183.593 429.052 180.037C432.61 176.482 434.608 171.66 434.608 166.632V151.827C434.608 153.692 434.241 155.538 433.526 157.261C432.812 158.984 431.766 160.55 430.446 161.868C429.127 163.187 427.56 164.232 425.835 164.945C424.111 165.659 422.263 166.025 420.397 166.025Z" fill="#FFA183"/>
</g>
<path opacity="0.43" d="M301.813 107.593C296.781 107.593 291.956 109.59 288.398 113.145C284.84 116.701 282.842 121.523 282.842 126.551V139.103C282.842 136.613 283.332 134.148 284.286 131.848C285.239 129.548 286.637 127.457 288.398 125.697C290.16 123.937 292.251 122.54 294.552 121.588C296.855 120.635 299.321 120.144 301.813 120.144C304.304 120.144 306.771 120.635 309.073 121.588C311.374 122.54 313.465 123.937 315.227 125.697C316.989 127.457 318.386 129.548 319.34 131.848C320.293 134.148 320.783 136.613 320.783 139.103V126.551C320.783 121.523 318.785 116.701 315.227 113.145C311.669 109.59 306.844 107.593 301.813 107.593Z" fill="white"/>
<path opacity="0.43" d="M339.755 98.9257C334.723 98.9257 329.898 100.923 326.34 104.478C322.783 108.033 320.784 112.856 320.784 117.883V130.436C320.784 125.408 322.783 120.585 326.34 117.03C329.898 113.475 334.723 111.477 339.755 111.477C344.786 111.477 349.612 113.475 353.169 117.03C356.727 120.585 358.725 125.408 358.725 130.436V117.883C358.725 112.856 356.727 108.033 353.169 104.478C349.612 100.923 344.786 98.9257 339.755 98.9257Z" fill="white"/>
<path opacity="0.43" d="M377.697 97.3447C372.665 97.3447 367.839 99.3426 364.282 102.898C360.724 106.453 358.725 111.275 358.725 116.303V128.855C358.725 123.827 360.724 119.004 364.282 115.449C367.839 111.894 372.665 109.897 377.697 109.897C382.728 109.897 387.553 111.894 391.111 115.449C394.668 119.004 396.667 123.827 396.667 128.855V116.303C396.667 111.275 394.668 106.453 391.111 102.898C387.553 99.3426 382.728 97.3447 377.697 97.3447Z" fill="white"/>
<path opacity="0.43" d="M415.638 109.044C410.606 109.044 405.781 111.041 402.223 114.596C398.665 118.151 396.667 122.973 396.667 128.001V140.553C396.667 135.525 398.665 130.703 402.223 127.147C405.781 123.592 410.606 121.595 415.638 121.595C420.669 121.595 425.494 123.592 429.052 127.147C432.61 130.703 434.608 135.525 434.608 140.553V128.001C434.608 122.973 432.61 118.151 429.052 114.596C425.494 111.041 420.669 109.044 415.638 109.044Z" fill="white"/>
<path d="M320.779 126.551C320.779 116.08 312.286 107.593 301.809 107.593C291.332 107.593 282.838 116.08 282.838 126.551V169.526C282.838 179.997 291.332 188.484 301.809 188.484C312.286 188.484 320.779 179.997 320.779 169.526V126.551Z" stroke="#020129" stroke-width="7" stroke-linecap="round" stroke-linejoin="round"/>
<path d="M358.721 117.883C358.721 107.413 350.229 98.9257 339.751 98.9257C329.274 98.9257 320.78 107.413 320.78 117.883V169.383C320.78 179.854 329.274 188.342 339.751 188.342C350.229 188.342 358.721 179.854 358.721 169.383V117.883Z" stroke="#020129" stroke-width="7" stroke-linecap="round" stroke-linejoin="round"/>
<path d="M396.663 116.303C396.663 105.833 388.17 97.3447 377.693 97.3447C367.215 97.3447 358.722 105.833 358.722 116.303V169.383C358.722 179.854 367.215 188.342 377.693 188.342C388.17 188.342 396.663 179.854 396.663 169.383V116.303Z" stroke="#020129" stroke-width="7" stroke-linecap="round" stroke-linejoin="round"/>
<path d="M434.604 127.996C434.604 117.526 426.111 109.038 415.634 109.038C405.157 109.038 396.663 117.526 396.663 127.996V166.633C396.663 177.103 405.157 185.591 415.634 185.591C426.111 185.591 434.604 177.103 434.604 166.633V127.996Z" stroke="#020129" stroke-width="7" stroke-linecap="round" stroke-linejoin="round"/>
<path d="M407.788 209.787H375.08C370.048 209.787 365.223 207.79 361.665 204.234C358.108 200.679 356.109 195.857 356.109 190.829C356.109 185.801 358.108 180.979 361.665 177.423C365.223 173.868 370.048 171.871 375.08 171.871H415.638C420.67 171.871 425.495 173.868 429.053 177.423C432.61 180.979 434.609 185.801 434.609 190.829V209.787H407.788Z" fill="#F9A991"/>
<path d="M375.081 198.253C371.058 198.253 367.14 196.975 363.892 194.604C360.643 192.232 358.233 188.891 357.01 185.061C356.159 187.722 355.906 190.538 356.271 193.307C356.955 197.922 359.289 202.134 362.84 205.162C366.392 208.191 370.92 209.831 375.588 209.781H413.075C413.075 206.723 411.859 203.789 409.695 201.626C407.53 199.463 404.595 198.248 401.534 198.248L375.081 198.253Z" fill="#F98568"/>
<path opacity="0.43" d="M415.639 171.871H375.08C372.115 171.871 369.192 172.565 366.544 173.899C363.895 175.232 361.598 177.167 359.833 179.548C358.069 181.929 356.888 184.691 356.385 187.611C355.881 190.531 356.07 193.528 356.935 196.362C358.121 192.477 360.525 189.076 363.792 186.659C367.058 184.242 371.015 182.937 375.08 182.937H415.639C420.67 182.937 425.495 184.934 429.053 188.489C432.61 192.046 434.61 196.867 434.61 201.896V190.829C434.61 185.801 432.61 180.979 429.053 177.423C425.495 173.868 420.67 171.871 415.639 171.871Z" fill="white"/>
<path d="M407.788 209.787H375.08C370.048 209.787 365.223 207.79 361.665 204.234C358.108 200.679 356.109 195.857 356.109 190.829C356.109 185.801 358.108 180.979 361.665 177.423C365.223 173.868 370.048 171.871 375.08 171.871H415.638C420.67 171.871 425.495 173.868 429.053 177.423C432.61 180.979 434.609 185.801 434.609 190.829V209.787" stroke="#020129" stroke-width="7" stroke-linecap="round" stroke-linejoin="round"/>
<path d="M292 410.513C335.091 426.243 382.359 426.243 425.45 410.513V323.933H292V410.513Z" fill="#2561A1"/>
<path d="M292 410.513C335.091 426.243 382.359 426.243 425.45 410.513V323.933H292V410.513Z" fill="#2561A1"/>
<path d="M292 410.513C335.091 426.243 382.359 426.243 425.45 410.513V323.933H358.725H292V410.513Z" fill="#1D3557"/>
<path d="M292 323.933V410.513C313.374 418.342 335.962 422.336 358.725 422.31V323.933H292Z" fill="white"/>
<path d="M425.447 323.933H291.997V335.147H425.447V323.933Z" fill="#A4C7E2"/>
<path d="M292 405.362C292.003 406.888 292.484 408.376 293.377 409.614C294.271 410.853 295.531 411.779 296.98 412.263C337.052 425.66 380.398 425.66 420.47 412.263C421.919 411.779 423.179 410.853 424.073 409.614C424.966 408.376 425.448 406.888 425.45 405.362V323.933H292V405.362Z" stroke="#020129" stroke-width="7" stroke-linecap="round" stroke-linejoin="round"/>
<g style="mix-blend-mode:overlay" opacity="0.59">
<g style="mix-blend-mode:overlay" opacity="0.59">
<path d="M282.366 258.304C282.061 258.304 281.758 258.245 281.475 258.128C281.193 258.011 280.936 257.839 280.72 257.624C280.503 257.408 280.332 257.151 280.214 256.868C280.097 256.587 280.038 256.284 280.038 255.978C280.046 255.575 279.907 255.182 279.645 254.875C279.382 254.568 279.017 254.367 278.617 254.312C278.396 254.29 278.174 254.313 277.963 254.382C277.753 254.45 277.559 254.562 277.395 254.71C277.23 254.857 277.098 255.038 277.007 255.24C276.917 255.442 276.87 255.66 276.869 255.882V255.973C276.869 256.279 276.809 256.581 276.692 256.864C276.575 257.146 276.403 257.402 276.187 257.618C275.972 257.834 275.715 258.006 275.432 258.122C275.15 258.239 274.847 258.3 274.541 258.299C274.138 258.29 273.744 258.431 273.438 258.692C273.13 258.954 272.93 259.319 272.875 259.719C272.852 259.939 272.875 260.162 272.945 260.373C273.014 260.584 273.126 260.778 273.274 260.943C273.423 261.107 273.604 261.239 273.807 261.329C274.01 261.419 274.229 261.465 274.451 261.465H274.541C274.847 261.465 275.15 261.526 275.432 261.643C275.715 261.76 275.972 261.932 276.187 262.148C276.403 262.363 276.575 262.62 276.692 262.903C276.809 263.185 276.869 263.488 276.869 263.793C276.86 264.196 277 264.589 277.262 264.896C277.524 265.203 277.89 265.402 278.29 265.457C278.509 265.481 278.732 265.457 278.943 265.388C279.153 265.32 279.347 265.208 279.512 265.061C279.677 264.912 279.809 264.732 279.899 264.53C279.989 264.328 280.037 264.11 280.038 263.889V263.806C280.038 263.187 280.284 262.593 280.722 262.155C281.16 261.717 281.755 261.471 282.374 261.471H282.456C282.678 261.47 282.897 261.423 283.099 261.333C283.301 261.242 283.482 261.111 283.629 260.946C283.778 260.781 283.889 260.588 283.957 260.377C284.026 260.166 284.049 259.944 284.026 259.724C283.971 259.325 283.772 258.96 283.467 258.699C283.161 258.438 282.769 258.297 282.366 258.304Z" fill="#E76F51"/>
</g>
</g>
<g style="mix-blend-mode:overlay" opacity="0.59">
<g style="mix-blend-mode:overlay" opacity="0.59">
<path d="M509.492 319.896C508.875 319.896 508.282 319.651 507.846 319.214C507.409 318.778 507.163 318.186 507.163 317.569C507.173 317.165 507.033 316.773 506.771 316.466C506.509 316.159 506.144 315.959 505.744 315.903C505.524 315.88 505.301 315.904 505.091 315.973C504.881 316.041 504.687 316.153 504.522 316.3C504.358 316.448 504.226 316.629 504.135 316.831C504.045 317.033 503.997 317.251 503.996 317.472V317.562C503.996 318.179 503.751 318.771 503.314 319.208C502.877 319.644 502.285 319.889 501.667 319.889C501.264 319.881 500.871 320.02 500.564 320.282C500.257 320.543 500.057 320.909 500.002 321.308C499.979 321.528 500.003 321.75 500.071 321.961C500.139 322.171 500.251 322.365 500.399 322.529C500.547 322.694 500.728 322.826 500.93 322.916C501.131 323.006 501.35 323.054 501.572 323.055H501.662C502.28 323.055 502.872 323.3 503.309 323.736C503.745 324.173 503.99 324.765 503.99 325.382C503.982 325.785 504.122 326.178 504.384 326.485C504.646 326.792 505.012 326.992 505.411 327.047C505.632 327.07 505.854 327.046 506.064 326.978C506.275 326.909 506.469 326.797 506.634 326.65C506.798 326.501 506.929 326.321 507.021 326.119C507.111 325.917 507.158 325.699 507.158 325.478V325.395C507.158 324.776 507.404 324.182 507.842 323.744C508.281 323.306 508.875 323.06 509.495 323.06H509.577C509.799 323.06 510.018 323.013 510.221 322.923C510.424 322.833 510.606 322.701 510.754 322.537C510.902 322.372 511.015 322.178 511.084 321.967C511.153 321.757 511.176 321.534 511.154 321.313C511.098 320.915 510.898 320.551 510.592 320.29C510.286 320.029 509.894 319.888 509.492 319.896Z" fill="#E76F51"/>
</g>
</g>
<g style="mix-blend-mode:overlay" opacity="0.59">
<g style="mix-blend-mode:overlay" opacity="0.59">
<path d="M210.326 293.229C209.364 293.229 208.441 292.847 207.76 292.168C207.081 291.487 206.698 290.565 206.698 289.604C206.712 288.975 206.494 288.363 206.085 287.885C205.677 287.407 205.108 287.094 204.485 287.009C204.141 286.972 203.793 287.009 203.465 287.117C203.136 287.224 202.834 287.399 202.577 287.63C202.32 287.862 202.116 288.144 201.975 288.46C201.835 288.776 201.762 289.117 201.762 289.462V289.604C201.762 290.565 201.379 291.487 200.699 292.167C200.019 292.847 199.096 293.229 198.134 293.229C197.504 293.216 196.893 293.434 196.414 293.841C195.935 294.249 195.623 294.819 195.536 295.441C195.501 295.785 195.538 296.132 195.646 296.461C195.752 296.789 195.927 297.091 196.159 297.348C196.391 297.604 196.673 297.809 196.99 297.949C197.305 298.09 197.647 298.162 197.993 298.162H198.134C199.096 298.163 200.019 298.545 200.699 299.225C201.379 299.904 201.762 300.826 201.762 301.788C201.748 302.417 201.966 303.028 202.375 303.506C202.783 303.985 203.353 304.297 203.975 304.383C204.319 304.418 204.667 304.381 204.995 304.275C205.324 304.167 205.626 303.992 205.883 303.761C206.139 303.53 206.344 303.247 206.485 302.931C206.625 302.616 206.698 302.274 206.698 301.929V301.798C206.698 300.833 207.081 299.908 207.764 299.225C208.447 298.543 209.374 298.159 210.339 298.159H210.47C210.816 298.159 211.157 298.087 211.473 297.947C211.789 297.806 212.072 297.601 212.303 297.345C212.534 297.088 212.709 296.786 212.816 296.458C212.923 296.129 212.96 295.782 212.924 295.439C212.838 294.816 212.525 294.247 212.047 293.84C211.567 293.432 210.955 293.215 210.326 293.229Z" fill="#E76F51"/>
</g>
</g>
</svg>
