<svg width="373" height="394" viewBox="0 0 373 394" fill="none" xmlns="http://www.w3.org/2000/svg">
<path d="M276 343.8H40C30.1 343.8 22 335.7 22 325.8V21C22 11.1 30.1 3 40 3H276C285.9 3 294 11.1 294 21V325.8C294 335.7 285.9 343.8 276 343.8Z" fill="#E76F51"/>
<path d="M276 343.8H40C30.1 343.8 22 335.7 22 325.8V21C22 11.1 30.1 3 40 3H276C285.9 3 294 11.1 294 21V325.8C294 335.7 285.9 343.8 276 343.8Z" fill="#E76F51"/>
<path d="M34 311V31C34 25.3 38.6 20.8 44.2 20.8H271.7C277.4 20.8 281.9 25.4 281.9 31V311C281.9 316.7 277.3 321.2 271.7 321.2H44.3C38.6 321.3 34 316.7 34 311Z" fill="#E76F51"/>
<path d="M276 343.8H40C30.1 343.8 22 335.7 22 325.8V21C22 11.1 30.1 3 40 3H276C285.9 3 294 11.1 294 21V325.8C294 335.7 285.9 343.8 276 343.8Z" stroke="#353535" stroke-width="6" stroke-miterlimit="10" stroke-linecap="round" stroke-linejoin="round"/>
<path d="M58.7 219.8C53.3 219.8 49 215.5 49 210.1V47.5C49 42.1 53.3 37.8 58.7 37.8H257.3C262.7 37.8 267 42.1 267 47.5V210.1C267 215.5 262.7 219.8 257.3 219.8H58.7Z" fill="#E76F51"/>
<path d="M76.7 209.2C67.2 209.2 59.5 201.5 59.5 192V65.5C59.5 56 67.2 48.3 76.7 48.3H239.3C248.8 48.3 256.5 56 256.5 65.5V191.9C256.5 201.4 248.8 209.1 239.3 209.1H76.7V209.2Z" fill="#353535"/>
<path opacity="0.3" d="M239.3 48.3H219.1C222.6 55.6 224.6 63.8 224.6 72.5C224.6 130.3 177.7 177.2 119.9 177.2H83.7C75 177.2 66.8 175.2 59.5 171.7V191.9C59.5 201.4 67.2 209.1 76.7 209.1H239.3C248.8 209.1 256.5 201.4 256.5 191.9V65.5C256.6 56 248.9 48.3 239.3 48.3Z" fill="#282828"/>
<path d="M228.5 260.8V257.7H159.8V245.7H228.5V242.6C228.5 241.6 229.3 240.7 230.4 240.7H266.6C267.6 240.7 268.5 241.5 268.5 242.6V260.8C268.5 261.8 267.7 262.7 266.6 262.7H230.4C229.3 262.7 228.5 261.9 228.5 260.8Z" fill="#E76F51"/>
<path d="M263.3 248.7H259V254.7H263.3V248.7Z" fill="#353535"/>
<path d="M322.7 390.1C322.7 380.2 333.2 372.1 346.2 372.1C359.2 372.1 369.7 380.2 369.7 390.1H322.7Z" fill="#E76F51"/>
<path d="M322.7 390.1C322.7 380.2 333.2 372.1 346.2 372.1C359.2 372.1 369.7 380.2 369.7 390.1H322.7Z" stroke="#1D3557" stroke-width="6" stroke-miterlimit="10" stroke-linecap="round" stroke-linejoin="round"/>
<path d="M277 345H39V369H277V345Z" fill="#E76F51"/>
<path d="M277 345H39V354.9H277V345Z" fill="#1D3557"/>
<path d="M277 345H39V369H277V345Z" stroke="#1D3557" stroke-width="6" stroke-miterlimit="10" stroke-linecap="round" stroke-linejoin="round"/>
<path d="M234 360.1H82V372.1H234V360.1Z" fill="#E76F51"/>
<path d="M292 360.1H272V372.1H292V360.1Z" fill="#E76F51"/>
<path d="M263 360.1H243V372.1H263V360.1Z" fill="#E76F51"/>
<path d="M73 360.1H53V372.1H73V360.1Z" fill="#E76F51"/>
<path d="M44 360.1H24V372.1H44V360.1Z" fill="#E76F51"/>
<path d="M312.1 372.1H3.79999V390.1H312.1V372.1Z" fill="#1D3557"/>
<path d="M312.1 372.1H3.79999V390.1H312.1V372.1Z" stroke="#353535" stroke-width="6" stroke-miterlimit="10" stroke-linecap="round" stroke-linejoin="round"/>
<path d="M234 360.1H158H82V372.1H234V360.1Z" stroke="#1D3557" stroke-width="6" stroke-miterlimit="10" stroke-linecap="round" stroke-linejoin="round"/>
<path d="M292 360.1H272V372.1H292V360.1Z" stroke="#353535" stroke-width="6" stroke-miterlimit="10" stroke-linecap="round" stroke-linejoin="round"/>
<path d="M263 360.1H243V372.1H263V360.1Z" stroke="#353535" stroke-width="6" stroke-miterlimit="10" stroke-linecap="round" stroke-linejoin="round"/>
<path d="M73 360.1H53V372.1H73V360.1Z" stroke="#353535" stroke-width="6" stroke-miterlimit="10" stroke-linecap="round" stroke-linejoin="round"/>
<path d="M44 360.1H24V372.1H44V360.1Z" stroke="#353535" stroke-width="6" stroke-miterlimit="10" stroke-linecap="round" stroke-linejoin="round"/>
<path d="M87.5 69.3H103.6" stroke="white" stroke-width="8" stroke-miterlimit="10" stroke-linecap="round" stroke-linejoin="round"/>
<path d="M120.3 69.3H177.7" stroke="white" stroke-width="8" stroke-miterlimit="10" stroke-linecap="round" stroke-linejoin="round"/>
<path d="M263.3 250.7H231.9V245.9C231.9 244.9 232.7 244 233.8 244H261.4C262.4 244 263.3 244.8 263.3 245.9V250.7Z" fill="#353535"/>
<path d="M261.4 259.4H233.8C232.8 259.4 231.9 258.6 231.9 257.5V251.7H263.3V257.5C263.3 258.5 262.4 259.4 261.4 259.4Z" fill="#353535"/>
<path d="M259.4 254.7H164.8C164.3 254.7 163.8 254.3 163.8 253.7V249.6C163.8 249.1 164.2 248.6 164.8 248.6H259.4C259.9 248.6 260.4 249 260.4 249.6V253.7C260.3 254.3 259.9 254.7 259.4 254.7Z" fill="#282828"/>
</svg>
